<svg xmlns="http://www.w3.org/2000/svg" xmlns:xlink="http://www.w3.org/1999/xlink" fill="none" version="1.1" width="24" height="24" viewBox="0 0 24 24"><defs><clipPath id="master_svg0_2_730"><rect x="0" y="0" width="24" height="24" rx="0"/></clipPath></defs><g clip-path="url(#master_svg0_2_730)"><g><path d="M13.413980617523194,5L19.999980617523192,5C20.552280617523195,5,20.999980617523192,5.44772,20.999980617523192,6L20.999980617523192,7L2.9999996175231933,7L2.9999996175231933,4C2.9999996175231933,3.447715,3.4477106175231933,3,4.0000006175231935,3L11.414000617523193,3L13.413980617523194,5ZM3.087000617523193,9L20.912980617523193,9C21.498180617523193,8.99974,21.958580617523193,9.49982,21.909980617523193,10.083L21.075980617523193,20.083C21.032880617523194,20.6011,20.599880617523194,20.9997,20.079980617523194,21L3.9200006175231934,21C3.4001006175231936,20.9997,2.9671516175231933,20.6011,2.9239996175231933,20.083L2.0900001575231935,10.083C2.0414283175231933,9.49982,2.5017986175231934,8.99974,3.087000617523193,9Z" fill="currentColor" fill-opacity="1" style="mix-blend-mode:passthrough"/></g></g></svg>