<svg xmlns="http://www.w3.org/2000/svg" xmlns:xlink="http://www.w3.org/1999/xlink" fill="none" version="1.1" width="24" height="24" viewBox="0 0 24 24"><defs><clipPath id="master_svg0_2_778"><rect x="0" y="0" width="24" height="24" rx="0"/></clipPath></defs><g clip-path="url(#master_svg0_2_778)"><g><path d="M17,3L21,3C21.5523,3,22,3.44772,22,4L22,20C22,20.5523,21.5523,21,21,21L3,21C2.447715,21,2,20.5523,2,20L2,4C2,3.44772,2.447715,3,3,3L7,3L7,1L9,1L9,3L15,3L15,1L17,1L17,3ZM15,5L9,5L9,7L7,7L7,5L4,5L4,9L20,9L20,5L17,5L17,7L15,7L15,5ZM20,11L4,11L4,19L20,19L20,11Z" fill="currentColor" fill-opacity="1" style="mix-blend-mode:passthrough"/></g></g></svg>