<svg xmlns="http://www.w3.org/2000/svg" xmlns:xlink="http://www.w3.org/1999/xlink" fill="none" version="1.1" width="24" height="24" viewBox="0 0 24 24"><defs><clipPath id="master_svg0_2_742"><rect x="0" y="0" width="24" height="24" rx="0"/></clipPath></defs><g clip-path="url(#master_svg0_2_742)"><g><path d="M9,13L9,16L15,16L15,13L22,13L22,20C22,20.5523,21.5523,21,21,21L3,21C2.447715,21,2,20.5523,2,20L2,13L9,13ZM11,11L13,11L13,14L11,14L11,11ZM7,5L7,2C7,1.447715,7.44772,1,8,1L16,1C16.552300000000002,1,17,1.447715,17,2L17,5L21,5C21.5523,5,22,5.44772,22,6L22,11L15,11L15,9L9,9L9,11L2,11L2,6C2,5.44772,2.447715,5,3,5L7,5ZM9,3L9,5L15,5L15,3L9,3Z" fill="currentColor" fill-opacity="1" style="mix-blend-mode:passthrough"/></g></g></svg>