<?xml version="1.0" encoding="UTF-8"?>
<svg id="Capa_1" xmlns="http://www.w3.org/2000/svg" version="1.1" xmlns:xlink="http://www.w3.org/1999/xlink" viewBox="0 0 512 512">
  <!-- Generator: Adobe Illustrator 29.7.1, SVG Export Plug-In . SVG Version: 2.1.1 Build 8)  -->
  <defs>
    <style>
      .st0 {
        fill: none;
      }

      .st1 {
        clip-path: url(#clippath);
      }
    </style>
    <clipPath id="clippath">
      <rect class="st0" x="635.8" y="-30.7" width="545.4" height="545.4"/>
    </clipPath>
  </defs>
  <g>
    <path fill="currentColor" d="M53.2,494.1c-8.3,0-15.5-4.8-18.7-12.5-3.2-7.7-1.5-16.2,4.4-22.1,19.8-19.8,28.2-48.8,22.1-76.1C24.2,343.7,4,293.5,4,242.1S30.1,126.7,77.5,84.5C125,42.3,188.4,19,256,19s131.6,23.3,179.6,65.6c23.3,20.5,41.6,44.4,54.4,71,13.3,27.5,20,56.6,20,86.5s-6.7,59-20,86.5c-12.8,26.6-31.1,50.4-54.4,71-48,42.3-111.8,65.6-179.6,65.6s-61.9-5-90.7-14.9c-30.3,27.9-70.9,43.8-112.1,43.8ZM256,59.4c-116.7,0-211.7,82-211.7,182.7s17.6,84.2,49.5,117.1c2.3,2.4,4,5.4,5,8.6,7.4,26.1,6,53.6-3.8,78.6,19.2-6.8,36.3-18.2,50.2-33.3,3.8-4.2,9.3-6.6,15-6.6s5.1.5,7.5,1.4c28.1,11.2,57.9,16.9,88.4,16.9,117.8,0,213.6-82,213.6-182.7S373.8,59.4,256,59.4Z"/>
    <path fill="currentColor" d="M256,24.8C118.5,24.8,9.8,123.2,9.8,242.1s20,99.7,56.5,138.5c7.2,29.7-1.5,61.3-23.3,83-9.1,9.1-2.7,24.7,10.2,24.7,41.3,0,81.1-16.2,110.6-44.7,29.3,10.4,60.2,15.7,92.1,15.7,137.9,0,248.2-98.7,248.2-217.3S393.8,24.8,256,24.8ZM256,430.6c-31.6,0-62.1-5.9-90.5-17.3-5.6-2.2-12-.8-16,3.7-17.5,19.1-40.2,32.5-65,38.6,13.7-26.2,17.1-57,8.8-86.2-.7-2.3-1.9-4.4-3.5-6.1-32.9-33.8-51.2-76.9-51.2-121.1,0-103.8,97.7-188.5,217.5-188.5s219.4,84.7,219.4,188.5-98.5,188.5-219.4,188.5Z"/>
  </g>
  <path fill="currentColor" d="M127.5,195.6c-26.2,0-47.5,21.3-47.5,47.5s21.3,47.5,47.5,47.5,47.5-21.3,47.5-47.5-21.3-47.5-47.5-47.5ZM127.5,258.9c-8.7,0-15.8-7.1-15.8-15.8s7.1-15.8,15.8-15.8,15.8,7.1,15.8,15.8-7.1,15.8-15.8,15.8Z"/>
  <path fill="currentColor" d="M254.1,195.6c-26.2,0-47.5,21.3-47.5,47.5s21.3,47.5,47.5,47.5,47.5-21.3,47.5-47.5-21.3-47.5-47.5-47.5ZM254.1,258.9c-8.7,0-15.8-7.1-15.8-15.8s7.1-15.8,15.8-15.8,15.8,7.1,15.8,15.8-7.1,15.8-15.8,15.8Z"/>
  <path fill="currentColor" d="M382.8,195.6c-26.2,0-47.5,21.3-47.5,47.5s21.3,47.5,47.5,47.5,47.5-21.3,47.5-47.5-21.3-47.5-47.5-47.5ZM382.8,258.9c-8.7,0-15.8-7.1-15.8-15.8s7.1-15.8,15.8-15.8,15.8,7.1,15.8,15.8-7.1,15.8-15.8,15.8Z"/>
  <g class="st1">
    <path fill="currentColor" d="M1022.1,37.5h90.9c12.6,0,22.7,10.2,22.7,22.7v363.6c0,12.6-10.2,22.7-22.7,22.7h-409.1c-12.6,0-22.7-10.2-22.7-22.7V60.2c0-12.6,10.2-22.7,22.7-22.7h90.9V-8h45.5v45.5h136.4V-8h45.5v45.5ZM976.7,82.9h-136.4v45.5h-45.5v-45.5h-68.2v90.9h363.6v-90.9h-68.2v45.5h-45.5v-45.5ZM1090.3,219.3h-363.6v181.8h363.6v-181.8Z"/>
  </g>
</svg>
