<svg xmlns="http://www.w3.org/2000/svg" xmlns:xlink="http://www.w3.org/1999/xlink" fill="none" version="1.1" width="24" height="24" viewBox="0 0 24 24"><defs><clipPath id="master_svg0_2_774"><rect x="0" y="0" width="24" height="24" rx="0"/></clipPath></defs><g clip-path="url(#master_svg0_2_774)"><g><path d="M21,9.5L21,12.5C21,14.985,16.97,17,12,17C7.03,17,3,14.985,3,12.5L3,9.5C3,11.985,7.03,14,12,14C16.97,14,21,11.985,21,9.5ZM3,14.5C3,16.985,7.03,19,12,19C16.97,19,21,16.985,21,14.5L21,17.5C21,19.985,16.97,22,12,22C7.03,22,3,19.985,3,17.5L3,14.5ZM12,12C7.03,12,3,9.985,3,7.5C3,5.015000000000001,7.03,3,12,3C16.97,3,21,5.015000000000001,21,7.5C21,9.985,16.97,12,12,12Z" fill="currentColor" fill-opacity="1" style="mix-blend-mode:passthrough"/></g></g></svg>