<svg xmlns="http://www.w3.org/2000/svg" xmlns:xlink="http://www.w3.org/1999/xlink" fill="none" version="1.1" width="24" height="24" viewBox="0 0 24 24"><defs><clipPath id="master_svg0_2_770"><rect x="0" y="0" width="24" height="24" rx="0"/></clipPath></defs><g clip-path="url(#master_svg0_2_770)"><g><path d="M5,12.5C5,12.813,5.461,13.358,6.529999999999999,13.893C7.914,14.585,9.876999999999999,15,12,15C14.123,15,16.086,14.585,17.47,13.893C18.539,13.358,19,12.813,19,12.5L19,10.329C17.35,11.349,14.827,12,12,12C9.173,12,6.65,11.348,5,10.329L5,12.5ZM19,15.329C17.35,16.349,14.827,17,12,17C9.173,17,6.65,16.348,5,15.329L5,17.5C5,17.813000000000002,5.461,18.358,6.529999999999999,18.893C7.914,19.585,9.876999999999999,20,12,20C14.123,20,16.086,19.585,17.47,18.893C18.539,18.358,19,17.813000000000002,19,17.5L19,15.329ZM3,17.5L3,7.5C3,5.015000000000001,7.03,3,12,3C16.97,3,21,5.015000000000001,21,7.5L21,17.5C21,19.985,16.97,22,12,22C7.03,22,3,19.985,3,17.5ZM12,10C14.123,10,16.086,9.585,17.47,8.893C18.539,8.358,19,7.813,19,7.5C19,7.187,18.539,6.6419999999999995,17.47,6.107C16.086,5.415,14.123,5,12,5C9.876999999999999,5,7.914,5.415,6.529999999999999,6.107C5.461,6.6419999999999995,5,7.187,5,7.5C5,7.813,5.461,8.358,6.529999999999999,8.893C7.914,9.585,9.876999999999999,10,12,10Z" fill="currentColor" fill-opacity="1" style="mix-blend-mode:passthrough"/></g></g></svg>