<?xml version="1.0" encoding="UTF-8"?>
<svg id="Layer_1" xmlns="http://www.w3.org/2000/svg" version="1.1" xmlns:xlink="http://www.w3.org/1999/xlink" viewBox="0 0 512 512">
  <!-- Generator: Adobe Illustrator 29.7.1, SVG Export Plug-In . SVG Version: 2.1.1 Build 8)  -->
  <defs>
    <style>
      .st0 {
        fill: none;
      }

      .st1 {
        clip-path: url(#clippath);
      }
    </style>
    <clipPath id="clippath">
      <rect class="st0" x="634.8" y="-38.7" width="545.4" height="545.4"/>
    </clipPath>
  </defs>
  <path fill="currentColor" d="M459.8,205.3c-1.8,0-3.6-.6-5-1.7l-38.1-29.3c-3.6-2.8-4.3-7.9-1.5-11.5,2.8-3.6,7.9-4.3,11.5-1.5l38.1,29.3c3.6,2.8,4.3,7.9,1.5,11.5-1.6,2-4,3.2-6.5,3.2Z"/>
  <path fill="currentColor" d="M459.8,481c-4.4,0-8.8-1.5-12.3-4.2l-191.5-147.4-191.5,147.4c-3.5,2.7-7.9,4.2-12.3,4.2-11.1,0-20.2-9.1-20.2-20.2,0-6.2,2.9-12.2,7.9-16l203.8-156.9c3.5-2.7,7.9-4.2,12.3-4.2s8.8,1.5,12.3,4.2l171.3,131.9v-181.6l-5.6,4.3c-3.6,2.7-7.8,4.2-12.3,4.2s-12.2-2.9-16-7.9c-3.3-4.3-4.7-9.6-4-14.9.7-5.3,3.4-10.1,7.7-13.4l38.1-29.3c3.6-2.7,7.8-4.2,12.3-4.2s12.1,2.9,16,7.9c2.7,3.5,4.2,7.9,4.2,12.4v263.7c0,5.4-2.1,10.5-5.9,14.3s-8.9,5.9-14.3,5.9h0Z"/>
  <path fill="currentColor" d="M459.8,477c-3.6,0-7.1-1.2-9.9-3.4l-193.9-149.3L62.1,473.6c-2.8,2.2-6.3,3.4-9.9,3.4-8.9,0-16.2-7.3-16.2-16.2,0-5,2.4-9.8,6.3-12.8l203.8-156.9c2.8-2.2,6.3-3.4,9.9-3.4s7.1,1.2,9.9,3.4l177.7,136.8v-197.9l-12.1,9.3c-2.9,2.2-6.3,3.4-9.9,3.4s-9.7-2.3-12.8-6.3c-2.6-3.4-3.8-7.7-3.2-12,.6-4.3,2.8-8.1,6.2-10.7l38.1-29.3c2.9-2.2,6.3-3.4,9.9-3.4s9.7,2.3,12.8,6.3c2.2,2.8,3.4,6.3,3.4,9.9v263.7c0,8.9-7.3,16.2-16.2,16.2h0Z"/>
  <path fill="currentColor" d="M459.8,477c-3.6,0-7.1-1.2-9.9-3.4l-193.9-149.3L62.1,473.6c-2.8,2.2-6.3,3.4-9.9,3.4-8.9,0-16.2-7.3-16.2-16.2,0-5,2.4-9.8,6.3-12.8l203.8-156.9c2.8-2.2,6.3-3.4,9.9-3.4s7.1,1.2,9.9,3.4l177.7,136.8v-197.9l-12.1,9.3c-2.9,2.2-6.3,3.4-9.9,3.4s-9.7-2.3-12.8-6.3c-2.6-3.4-3.8-7.7-3.2-12,.6-4.3,2.8-8.1,6.2-10.7l38.1-29.3c2.9-2.2,6.3-3.4,9.9-3.4s9.7,2.3,12.8,6.3c2.2,2.8,3.4,6.3,3.4,9.9v263.7c0,8.9-7.3,16.2-16.2,16.2h0Z"/>
  <path fill="currentColor" d="M459.8,473c-2.7,0-5.3-.9-7.4-2.5l-196.4-151.2L59.6,470.5c-2.1,1.6-4.7,2.5-7.4,2.5-6.7,0-12.2-5.5-12.2-12.2,0-3.8,1.8-7.4,4.8-9.7l203.8-156.9c2.1-1.6,4.8-2.5,7.4-2.5s5.3.9,7.4,2.5l184.2,141.8v-214.1l-18.5,14.2c-2.1,1.7-4.7,2.5-7.4,2.5s-7.3-1.7-9.7-4.8c-2-2.6-2.8-5.8-2.4-9s2.1-6.1,4.7-8.1l38.1-29.3c2.2-1.7,4.7-2.5,7.4-2.5s7.3,1.7,9.7,4.7c1.6,2.1,2.5,4.8,2.5,7.5v263.7c0,6.7-5.5,12.2-12.2,12.2h0Z"/>
  <path fill="currentColor" d="M459.8,477c-3.6,0-7.1-1.2-9.9-3.4l-193.9-149.3L62.1,473.6c-2.8,2.2-6.3,3.4-9.9,3.4-8.9,0-16.2-7.3-16.2-16.2,0-5,2.4-9.8,6.3-12.8l203.8-156.9c2.8-2.2,6.3-3.4,9.9-3.4s7.1,1.2,9.9,3.4l177.7,136.8v-197.9l-12.1,9.3c-2.9,2.2-6.3,3.4-9.9,3.4s-9.7-2.3-12.8-6.3c-2.6-3.4-3.8-7.7-3.2-12,.6-4.3,2.8-8.1,6.2-10.7l38.1-29.3c2.9-2.2,6.3-3.4,9.9-3.4s9.7,2.3,12.8,6.3c2.2,2.8,3.4,6.3,3.4,9.9v263.7c0,8.9-7.3,16.2-16.2,16.2h0Z"/>
  <path fill="currentColor" d="M459.8,473c-2.7,0-5.3-.9-7.4-2.5l-196.4-151.2L59.6,470.5c-2.1,1.6-4.7,2.5-7.4,2.5-6.7,0-12.2-5.5-12.2-12.2,0-3.8,1.8-7.4,4.8-9.7l203.8-156.9c2.1-1.6,4.8-2.5,7.4-2.5s5.3.9,7.4,2.5l184.2,141.8v-214.1l-18.5,14.2c-2.1,1.7-4.7,2.5-7.4,2.5s-7.3-1.7-9.7-4.8c-2-2.6-2.8-5.8-2.4-9s2.1-6.1,4.7-8.1l38.1-29.3c2.2-1.7,4.7-2.5,7.4-2.5s7.3,1.7,9.7,4.7c1.6,2.1,2.5,4.8,2.5,7.5v263.7c0,6.7-5.5,12.2-12.2,12.2h0Z"/>
  <path fill="currentColor" d="M459.8,473c-2.7,0-5.3-.9-7.4-2.5l-196.4-151.2L59.6,470.5c-2.1,1.6-4.7,2.5-7.4,2.5-6.7,0-12.2-5.5-12.2-12.2,0-3.8,1.8-7.4,4.8-9.7l203.8-156.9c2.1-1.6,4.8-2.5,7.4-2.5s5.3.9,7.4,2.5l184.2,141.8v-214.1l-18.5,14.2c-2.1,1.7-4.7,2.5-7.4,2.5s-7.3-1.7-9.7-4.8c-2-2.6-2.8-5.8-2.4-9s2.1-6.1,4.7-8.1l38.1-29.3c2.2-1.7,4.7-2.5,7.4-2.5s7.3,1.7,9.7,4.7c1.6,2.1,2.5,4.8,2.5,7.5v263.7c0,6.7-5.5,12.2-12.2,12.2h0Z"/>
  <path fill="currentColor" d="M52.2,469c-4.5,0-8.2-3.7-8.2-8.2,0-2.5,1.2-4.9,3.2-6.5l203.8-156.9c2.9-2.3,7-2.3,10,0l190.6,146.7v-230.4l-24.9,19.2c-3.6,2.8-8.7,2.1-11.5-1.5-2.8-3.6-2.1-8.7,1.5-11.5l38.1-29.3c3.6-2.8,8.7-2.1,11.5,1.5,1.1,1.4,1.7,3.2,1.7,5v263.7c0,4.5-3.7,8.2-8.2,8.2-1.8,0-3.6-.6-5-1.7l-198.8-153L57.2,467.3c-1.4,1.1-3.2,1.7-5,1.7h0Z"/>
  <path fill="currentColor" d="M52.2,481c-11.1,0-20.2-9.1-20.2-20.2V197.1c0-11.1,9.1-20.2,20.2-20.2s20.2,9.1,20.2,20.2v243.5h367.3v-202.4l-138.8,106.8c-3.6,2.7-7.8,4.2-12.3,4.2s-12.2-2.9-16-7.9c-6.8-8.8-5.1-21.5,3.7-28.3l171.2-131.8c3.5-2.8,7.8-4.2,12.3-4.2s12.1,2.8,16,7.8c2.7,3.5,4.2,7.9,4.2,12.4v263.7c0,11.1-9.1,20.2-20.2,20.2H52.2Z"/>
  <path fill="currentColor" d="M52.2,477c-8.9,0-16.2-7.3-16.2-16.2V197.1c0-8.9,7.3-16.2,16.2-16.2s16.2,7.3,16.2,16.2v247.5h375.3v-214.6l-145.2,111.8c-2.9,2.2-6.3,3.4-9.9,3.4s-9.7-2.3-12.8-6.3c-5.4-7.1-4.1-17.3,3-22.7l171.2-131.8c2.8-2.2,6.3-3.4,9.9-3.4s9.7,2.3,12.8,6.3c2.2,2.8,3.4,6.4,3.4,9.9v263.7c0,8.9-7.3,16.2-16.2,16.2H52.2Z"/>
  <path fill="currentColor" d="M52.2,477c-8.9,0-16.2-7.3-16.2-16.2V197.1c0-8.9,7.3-16.2,16.2-16.2s16.2,7.3,16.2,16.2v247.5h375.3v-214.6l-145.2,111.8c-2.9,2.2-6.3,3.4-9.9,3.4s-9.7-2.3-12.8-6.3c-5.4-7.1-4.1-17.3,3-22.7l171.2-131.8c2.8-2.2,6.3-3.4,9.9-3.4s9.7,2.3,12.8,6.3c2.2,2.8,3.4,6.4,3.4,9.9v263.7c0,8.9-7.3,16.2-16.2,16.2H52.2Z"/>
  <path fill="currentColor" d="M52.2,473c-6.7,0-12.2-5.5-12.2-12.2V197.1c0-6.7,5.5-12.2,12.2-12.2s12.2,5.5,12.2,12.2v251.5h383.3v-226.7l-151.6,116.7c-2.2,1.7-4.7,2.5-7.4,2.5-3.8,0-7.3-1.7-9.7-4.8-4.1-5.3-3.1-13,2.2-17.1l171.2-131.8c2.1-1.7,4.7-2.6,7.5-2.6s7.3,1.7,9.6,4.7c1.7,2.1,2.6,4.8,2.6,7.5v263.7c0,6.7-5.5,12.2-12.2,12.2H52.2Z"/>
  <path fill="currentColor" d="M52.2,477c-8.9,0-16.2-7.3-16.2-16.2V197.1c0-8.9,7.3-16.2,16.2-16.2s16.2,7.3,16.2,16.2v247.5h375.3v-214.6l-145.2,111.8c-2.9,2.2-6.3,3.4-9.9,3.4s-9.7-2.3-12.8-6.3c-5.4-7.1-4.1-17.3,3-22.7l171.2-131.8c2.8-2.2,6.3-3.4,9.9-3.4s9.7,2.3,12.8,6.3c2.2,2.8,3.4,6.4,3.4,9.9v263.7c0,8.9-7.3,16.2-16.2,16.2H52.2Z"/>
  <path fill="currentColor" d="M52.2,473c-6.7,0-12.2-5.5-12.2-12.2V197.1c0-6.7,5.5-12.2,12.2-12.2s12.2,5.5,12.2,12.2v251.5h383.3v-226.7l-151.6,116.7c-2.2,1.7-4.7,2.5-7.4,2.5-3.8,0-7.3-1.7-9.7-4.8-4.1-5.3-3.1-13,2.2-17.1l171.2-131.8c2.1-1.7,4.7-2.6,7.5-2.6s7.3,1.7,9.6,4.7c1.7,2.1,2.6,4.8,2.6,7.5v263.7c0,6.7-5.5,12.2-12.2,12.2H52.2Z"/>
  <path fill="currentColor" d="M52.2,473c-6.7,0-12.2-5.5-12.2-12.2V197.1c0-6.7,5.5-12.2,12.2-12.2s12.2,5.5,12.2,12.2v251.5h383.3v-226.7l-151.6,116.7c-2.2,1.7-4.7,2.5-7.4,2.5-3.8,0-7.3-1.7-9.7-4.8-4.1-5.3-3.1-13,2.2-17.1l171.2-131.8c2.1-1.7,4.7-2.6,7.5-2.6s7.3,1.7,9.6,4.7c1.7,2.1,2.6,4.8,2.6,7.5v263.7c0,6.7-5.5,12.2-12.2,12.2H52.2Z"/>
  <path fill="currentColor" d="M459.8,469H52.2c-4.5,0-8.2-3.7-8.2-8.2V197.1c0-4.5,3.7-8.2,8.2-8.2s8.2,3.7,8.2,8.2v255.5h391.3v-238.8l-158.1,121.7c-3.6,2.8-8.7,2.1-11.5-1.5s-2.1-8.7,1.5-11.5l133.1-102.5,38.1-29.3c3.6-2.8,8.7-2.1,11.5,1.4,1.1,1.4,1.7,3.2,1.7,5v263.7c0,4.5-3.7,8.2-8.2,8.2Z"/>
  <path fill="currentColor" d="M215.4,349.2v-1.7c-1.5-.7-3-1.5-4.3-2.5l-133.1-102.5-38.1-29.4c-8.8-6.8-10.5-19.5-3.7-28.3,3.9-5,9.7-7.9,16-7.9s8.7,1.4,12.3,4.2l171.2,131.8c4.3,3.3,7,8,7.7,13.4.7,5.3-.7,10.6-4,14.9-2.1,2.7-4.9,4.9-8,6.2v1.7s-16,0-16,0Z"/>
  <path fill="currentColor" d="M219.4,345.2v-.5c-2.1-.5-4.1-1.5-5.9-2.9l-133.1-102.5-38.1-29.4c-7.1-5.4-8.4-15.6-3-22.7,3.1-4,7.8-6.3,12.8-6.3s7,1.2,9.9,3.4l171.2,131.8c3.4,2.6,5.6,6.5,6.2,10.7.6,4.3-.6,8.5-3.2,12-2.2,2.9-5.4,4.9-8.8,5.8v.5s-8,0-8,0Z"/>
  <path fill="currentColor" d="M219.4,345.2v-.5c-2.1-.5-4.1-1.5-5.9-2.9l-133.1-102.5-38.1-29.4c-7.1-5.4-8.4-15.6-3-22.7,3.1-4,7.8-6.3,12.8-6.3s7,1.2,9.9,3.4l171.2,131.8c3.4,2.6,5.6,6.5,6.2,10.7.6,4.3-.6,8.5-3.2,12-2.2,2.9-5.4,4.9-8.8,5.8v.5s-8,0-8,0Z"/>
  <path fill="currentColor" d="M223.4,341.2v-2.7s0,2.7,0,2.7c-2.7,0-5.3-.9-7.4-2.5l-133.1-102.5-38.1-29.4c-5.3-4.1-6.3-11.8-2.2-17.1,2.3-3,5.9-4.8,9.7-4.8s5.3.9,7.4,2.5l171.2,131.8c2.6,2,4.2,4.9,4.7,8.1s-.4,6.4-2.4,9c-2.3,3-5.9,4.8-9.6,4.8h0Z"/>
  <path fill="currentColor" d="M219.4,345.2v-.5c-2.1-.5-4.1-1.5-5.9-2.9l-133.1-102.5-38.1-29.4c-7.1-5.4-8.4-15.6-3-22.7,3.1-4,7.8-6.3,12.8-6.3s7,1.2,9.9,3.4l171.2,131.8c3.4,2.6,5.6,6.5,6.2,10.7.6,4.3-.6,8.5-3.2,12-2.2,2.9-5.4,4.9-8.8,5.8v.5s-8,0-8,0Z"/>
  <path fill="currentColor" d="M223.4,341.2v-2.7s0,2.7,0,2.7c-2.7,0-5.3-.9-7.4-2.5l-133.1-102.5-38.1-29.4c-5.3-4.1-6.3-11.8-2.2-17.1,2.3-3,5.9-4.8,9.7-4.8s5.3.9,7.4,2.5l171.2,131.8c2.6,2,4.2,4.9,4.7,8.1s-.4,6.4-2.4,9c-2.3,3-5.9,4.8-9.6,4.8h0Z"/>
  <path fill="currentColor" d="M223.4,341.2v-2.7s0,2.7,0,2.7c-2.7,0-5.3-.9-7.4-2.5l-133.1-102.5-38.1-29.4c-5.3-4.1-6.3-11.8-2.2-17.1,2.3-3,5.9-4.8,9.7-4.8s5.3.9,7.4,2.5l171.2,131.8c2.6,2,4.2,4.9,4.7,8.1s-.4,6.4-2.4,9c-2.3,3-5.9,4.8-9.6,4.8h0Z"/>
  <path fill="currentColor" d="M223.4,337.2c-1.8,0-3.6-.6-5-1.7l-133.1-102.5-38.1-29.4c-3.6-2.8-4.3-7.9-1.5-11.5s7.9-4.3,11.5-1.5l38.1,29.3,133.1,102.5c3.6,2.8,4.3,7.9,1.5,11.5-1.6,2-4,3.2-6.5,3.2h0Z"/>
  <path fill="currentColor" d="M52.2,473c-6.7,0-12.2-5.5-12.2-12.2V197.1c0-3.9,1.9-7.6,5-9.9l37.9-29.2c2.2-1.7,4.7-2.5,7.4-2.5s7.3,1.7,9.7,4.8c2,2.6,2.8,5.8,2.4,9-.4,3.2-2.1,6.1-4.7,8.1l-33.4,25.7v257.7c0,6.7-5.5,12.2-12.2,12.2Z"/>
  <path fill="currentColor" d="M52.2,469c-4.5,0-8.2-3.7-8.2-8.2V197.1c0-2.6,1.3-5.1,3.4-6.7l37.9-29.2c3.6-2.8,8.7-2.1,11.5,1.5,2.8,3.6,2.1,8.7-1.5,11.5l-34.9,26.9v259.6c0,4.5-3.7,8.2-8.2,8.2Z"/>
  <path fill="currentColor" d="M168.2,128c-6.3,0-12.2-2.9-16-7.9-6.8-8.8-5.1-21.5,3.7-28.3l62.3-47.9c10.8-8.3,24.2-12.9,37.8-12.9s27,4.6,37.8,12.9l62.3,47.9c4.3,3.3,7,8,7.7,13.4.7,5.3-.7,10.6-4,14.9-3.8,4.9-9.8,7.9-16,7.9s-8.8-1.5-12.3-4.2l-62.3-47.9c-3.8-2.9-8.4-4.5-13.2-4.5s-9.4,1.6-13.2,4.5l-62.2,47.9c-3.6,2.7-7.8,4.2-12.3,4.2Z"/>
  <path fill="currentColor" d="M168.2,124c-5.1,0-9.7-2.3-12.8-6.3-5.4-7.1-4.1-17.3,3-22.7l62.3-47.9c10.1-7.8,22.7-12,35.4-12s25.3,4.3,35.4,12l62.3,47.9c3.4,2.6,5.6,6.5,6.2,10.7.6,4.3-.6,8.5-3.2,12-3,4-7.8,6.3-12.8,6.3s-7.1-1.2-9.9-3.4l-62.3-47.9c-4.5-3.5-9.9-5.3-15.6-5.3s-11.1,1.8-15.6,5.3l-62.2,47.9c-2.9,2.2-6.3,3.4-9.9,3.4Z"/>
  <path fill="currentColor" d="M168.2,124c-5.1,0-9.7-2.3-12.8-6.3-5.4-7.1-4.1-17.3,3-22.7l62.3-47.9c10.1-7.8,22.7-12,35.4-12s25.3,4.3,35.4,12l62.3,47.9c3.4,2.6,5.6,6.5,6.2,10.7.6,4.3-.6,8.5-3.2,12-3,4-7.8,6.3-12.8,6.3s-7.1-1.2-9.9-3.4l-62.3-47.9c-4.5-3.5-9.9-5.3-15.6-5.3s-11.1,1.8-15.6,5.3l-62.2,47.9c-2.9,2.2-6.3,3.4-9.9,3.4Z"/>
  <path fill="currentColor" d="M168.2,120c-3.8,0-7.3-1.7-9.7-4.8-4.1-5.3-3.1-13,2.2-17.1l62.3-47.9c9.4-7.2,21.1-11.2,32.9-11.2s23.5,4,32.9,11.2l62.3,47.9c2.6,2,4.2,4.9,4.7,8.1.4,3.2-.4,6.4-2.4,9-2.3,3-5.9,4.8-9.7,4.8s-5.3-.9-7.4-2.5l-62.3-47.9c-5.2-4-11.5-6.1-18.1-6.1s-12.8,2.1-18.1,6.1l-62.2,47.9c-2.2,1.7-4.7,2.5-7.4,2.5Z"/>
  <path fill="currentColor" d="M168.2,124c-5.1,0-9.7-2.3-12.8-6.3-5.4-7.1-4.1-17.3,3-22.7l62.3-47.9c10.1-7.8,22.7-12,35.4-12s25.3,4.3,35.4,12l62.3,47.9c3.4,2.6,5.6,6.5,6.2,10.7.6,4.3-.6,8.5-3.2,12-3,4-7.8,6.3-12.8,6.3s-7.1-1.2-9.9-3.4l-62.3-47.9c-4.5-3.5-9.9-5.3-15.6-5.3s-11.1,1.8-15.6,5.3l-62.2,47.9c-2.9,2.2-6.3,3.4-9.9,3.4Z"/>
  <path fill="currentColor" d="M168.2,120c-3.8,0-7.3-1.7-9.7-4.8-4.1-5.3-3.1-13,2.2-17.1l62.3-47.9c9.4-7.2,21.1-11.2,32.9-11.2s23.5,4,32.9,11.2l62.3,47.9c2.6,2,4.2,4.9,4.7,8.1.4,3.2-.4,6.4-2.4,9-2.3,3-5.9,4.8-9.7,4.8s-5.3-.9-7.4-2.5l-62.3-47.9c-5.2-4-11.5-6.1-18.1-6.1s-12.8,2.1-18.1,6.1l-62.2,47.9c-2.2,1.7-4.7,2.5-7.4,2.5Z"/>
  <path fill="currentColor" d="M168.2,120c-3.8,0-7.3-1.7-9.7-4.8-4.1-5.3-3.1-13,2.2-17.1l62.3-47.9c9.4-7.2,21.1-11.2,32.9-11.2s23.5,4,32.9,11.2l62.3,47.9c2.6,2,4.2,4.9,4.7,8.1.4,3.2-.4,6.4-2.4,9-2.3,3-5.9,4.8-9.7,4.8s-5.3-.9-7.4-2.5l-62.3-47.9c-5.2-4-11.5-6.1-18.1-6.1s-12.8,2.1-18.1,6.1l-62.2,47.9c-2.2,1.7-4.7,2.5-7.4,2.5Z"/>
  <path fill="currentColor" d="M343.8,116c-1.8,0-3.6-.6-5-1.7l-62.3-47.9c-12.1-9.3-28.9-9.3-41,0l-62.2,47.9c-3.6,2.8-8.7,2.1-11.5-1.5-2.8-3.6-2.1-8.7,1.5-11.5h0l62.3-47.9c18-13.8,43-13.8,61,0l62.3,47.9c3.6,2.8,4.3,7.9,1.5,11.5-1.6,2-4,3.2-6.5,3.2h0Z"/>
  <path fill="currentColor" d="M-365.3,523.2c-8.9,0-16.2-7.3-16.2-16.2s7.3-16.2,16.2-16.2h155.6c8.9,0,16.2,7.3,16.2,16.2s-7.3,16.2-16.2,16.2h-155.6Z"/>
  <path fill="currentColor" d="M-343.3,393.2c-6.7,0-12.2-5.5-12.2-12.2s5.5-12.2,12.2-12.2h155.6c6.7,0,12.2,5.5,12.2,12.2s-5.5,12.2-12.2,12.2h-155.6Z"/>
  <path fill="currentColor" d="M-290.3,256.2c-6.7,0-12.2-5.5-12.2-12.2s5.5-12.2,12.2-12.2h155.6c6.7,0,12.2,5.5,12.2,12.2s-5.5,12.2-12.2,12.2h-155.6Z"/>
  <path fill="currentColor" d="M-419.3,202.7c-8.9,0-16.2-7.3-16.2-16.2s7.3-16.2,16.2-16.2h155.6c8.9,0,16.2,7.3,16.2,16.2s-7.3,16.2-16.2,16.2h-155.6Z"/>
  <path fill="currentColor" d="M-259.3,159.7c-6.7,0-12.2-5.5-12.2-12.2s5.5-12.2,12.2-12.2H-103.7c6.7,0,12.2,5.5,12.2,12.2s-5.5,12.2-12.2,12.2h-155.6Z"/>
  <path fill="currentColor" d="M-276.3,116.7c-6.7,0-12.2-5.5-12.2-12.2s5.5-12.2,12.2-12.2H-120.7c6.7,0,12.2,5.5,12.2,12.2s-5.5,12.2-12.2,12.2h-155.6Z"/>
  <path fill="currentColor" d="M-390.3,406.1c-8.9,0-16.2-7.3-16.2-16.2s7.3-16.2,16.2-16.2h155.6c8.9,0,16.2,7.3,16.2,16.2s-7.3,16.2-16.2,16.2h-155.6Z"/>
  <path fill="currentColor" d="M-410.3,400.1c-6.7,0-12.2-5.5-12.2-12.2s5.5-12.2,12.2-12.2h155.6c6.7,0,12.2,5.5,12.2,12.2s-5.5,12.2-12.2,12.2h-155.6Z"/>
  <path fill="currentColor" d="M-466.3,344.1c-6.7,0-12.2-5.5-12.2-12.2s5.5-12.2,12.2-12.2h155.6c6.7,0,12.2,5.5,12.2,12.2s-5.5,12.2-12.2,12.2h-155.6Z"/>
  <path fill="currentColor" d="M333.6,203.2h-155.6c-4.5,0-8.2-3.7-8.2-8.2s3.7-8.2,8.2-8.2h155.6c4.5,0,8.2,3.7,8.2,8.2s-3.7,8.2-8.2,8.2Z"/>
  <path fill="currentColor" d="M333.6,166.7h-155.6c-4.5,0-8.2-3.7-8.2-8.2s3.7-8.2,8.2-8.2h155.6c4.5,0,8.2,3.7,8.2,8.2s-3.7,8.2-8.2,8.2Z"/>
  <path fill="currentColor" d="M333.6,241.1h-155.6c-4.5,0-8.2-3.7-8.2-8.2s3.7-8.2,8.2-8.2h155.6c4.5,0,8.2,3.7,8.2,8.2s-3.7,8.2-8.2,8.2Z"/>
  <path fill="currentColor" d="M421.7,246.7c-11.1,0-20.2-9.1-20.2-20.2v-98.5H110.5v98.5c0,11.1-9.1,20.2-20.2,20.2s-20.2-9.1-20.2-20.2v-118.7c0-11.1,9.1-20.2,20.2-20.2h331.4c11.1,0,20.2,9.1,20.2,20.2v118.7c0,11.1-9.1,20.2-20.2,20.2Z"/>
  <path fill="currentColor" d="M421.7,242.7c-8.9,0-16.2-7.3-16.2-16.2v-102.5H106.5v102.5c0,8.9-7.3,16.2-16.2,16.2s-16.2-7.3-16.2-16.2v-118.7c0-8.9,7.3-16.2,16.2-16.2h331.4c8.9,0,16.2,7.3,16.2,16.2v118.7c0,8.9-7.3,16.2-16.2,16.2Z"/>
  <path fill="currentColor" d="M421.7,242.7c-8.9,0-16.2-7.3-16.2-16.2v-102.5H106.5v102.5c0,8.9-7.3,16.2-16.2,16.2s-16.2-7.3-16.2-16.2v-118.7c0-8.9,7.3-16.2,16.2-16.2h331.4c8.9,0,16.2,7.3,16.2,16.2v118.7c0,8.9-7.3,16.2-16.2,16.2Z"/>
  <path fill="currentColor" d="M421.7,238.7c-6.7,0-12.2-5.5-12.2-12.2v-106.5H102.5v106.5c0,6.7-5.5,12.2-12.2,12.2s-12.2-5.5-12.2-12.2v-118.7c0-6.7,5.5-12.2,12.2-12.2h331.4c6.7,0,12.2,5.5,12.2,12.2v118.7c0,6.7-5.5,12.2-12.2,12.2Z"/>
  <path fill="currentColor" d="M421.7,242.7c-8.9,0-16.2-7.3-16.2-16.2v-102.5H106.5v102.5c0,8.9-7.3,16.2-16.2,16.2s-16.2-7.3-16.2-16.2v-118.7c0-8.9,7.3-16.2,16.2-16.2h331.4c8.9,0,16.2,7.3,16.2,16.2v118.7c0,8.9-7.3,16.2-16.2,16.2Z"/>
  <path fill="currentColor" d="M421.7,238.7c-6.7,0-12.2-5.5-12.2-12.2v-106.5H102.5v106.5c0,6.7-5.5,12.2-12.2,12.2s-12.2-5.5-12.2-12.2v-118.7c0-6.7,5.5-12.2,12.2-12.2h331.4c6.7,0,12.2,5.5,12.2,12.2v118.7c0,6.7-5.5,12.2-12.2,12.2Z"/>
  <path fill="currentColor" d="M421.7,238.7c-6.7,0-12.2-5.5-12.2-12.2v-106.5H102.5v106.5c0,6.7-5.5,12.2-12.2,12.2s-12.2-5.5-12.2-12.2v-118.7c0-6.7,5.5-12.2,12.2-12.2h331.4c6.7,0,12.2,5.5,12.2,12.2v118.7c0,6.7-5.5,12.2-12.2,12.2Z"/>
  <path fill="currentColor" d="M421.7,234.7c-4.5,0-8.2-3.7-8.2-8.2v-110.5H98.5v110.5c0,4.5-3.7,8.2-8.2,8.2s-8.2-3.7-8.2-8.2v-118.7c0-4.5,3.7-8.2,8.2-8.2h331.4c4.5,0,8.2,3.7,8.2,8.2v118.7c0,4.5-3.7,8.2-8.2,8.2Z"/>
  <g class="st1">
    <path fill="currentColor" d="M1021.1,29.5h90.9c12.6,0,22.7,10.2,22.7,22.7v363.6c0,12.6-10.2,22.7-22.7,22.7h-409.1c-12.6,0-22.7-10.2-22.7-22.7V52.2c0-12.6,10.2-22.7,22.7-22.7h90.9V-16h45.5V29.5h136.4V-16h45.5V29.5ZM975.7,74.9h-136.4v45.5h-45.5v-45.5h-68.2v90.9h363.6v-90.9h-68.2v45.5h-45.5v-45.5ZM1089.3,211.3h-363.6v181.8h363.6v-181.8Z"/>
  </g>
</svg>
