<?xml version="1.0" encoding="UTF-8"?>
<svg id="Layer_1" xmlns="http://www.w3.org/2000/svg" version="1.1" xmlns:xlink="http://www.w3.org/1999/xlink" viewBox="0 0 512 512">
  <!-- Generator: Adobe Illustrator 29.7.1, SVG Export Plug-In . SVG Version: 2.1.1 Build 8)  -->
  <defs>
    <style>
      .st0 {
        fill: none;
      }

      .st1 {
        clip-path: url(#clippath);
      }
    </style>
    <clipPath id="clippath">
      <rect class="st0" x="768.2" y="17.7" width="545.4" height="545.4"/>
    </clipPath>
  </defs>
  <path fill="currentColor" d="M45.9,516c-27.5,0-49.9-22.4-49.9-49.9V45.9C-4,18.4,18.4-4,45.9-4h157.2c40.9,0,79.5,16,108.5,45.1l72.1,76.1c22.3,22.3,36,44.7,42.1,68.6,1.9,7.9.2,15.6-4.5,21.7-4.8,6.3-12.2,9.9-20.1,9.9l-158.9-2.5c-15.9,0-15.9-13.1-15.9-20.9l.7-147.1c-4.7-.1-13.3-.2-24.3-.2H46.7v418.9h273.3c17.2,0,33.6-7.4,45-20.4,4.8-5.5,11.7-8.7,19-8.7s6.9.7,10.1,2.1v-1.6l6.6,5.7c5.2,4.5,8.2,10.7,8.6,17.5.4,6.8-1.9,13.3-6.4,18.3-21.1,23.8-51.3,37.4-83,37.4H45.9ZM362.5,166.6c-3.8-5.7-8.1-11-12.7-15.6l-74.2-74.2c-4.9-4.9-10.2-9.3-15.8-13v102.8h102.7ZM444,430.4c-6.7,0-13-2.6-17.9-7.3-4.8-4.8-7.4-11.2-7.4-17.9s2.6-13.1,7.4-17.9l20.7-20.7h-159.6l-1.1-.9c-11.2-9.4-15.4-21.8-11.3-33.1,3.6-10,13.2-16.7,23.8-16.7h148.2l-29.1-29.1v-1.5c-.8-13.1,3.8-21,7.9-25.3,4.8-5.1,11.4-8,18.4-8s13.1,2.6,17.8,7.4l34.3,34.3c26,26,26.1,68.5.2,94.8h0c0,.1-34.3,34.4-34.3,34.4-4.8,4.8-11,7.4-17.9,7.4Z"/>
  <path fill="currentColor" d="M398.1,445.9c-8.7-7.9-22.4-7-30.1,1.9-12.2,13.9-29.7,21.8-48,21.8H45.9c-1.8,0-3.2-1.5-3.2-3.2V45.9c0-1.8,1.5-3.2,3.2-3.2h157c3.4,0,24.9,0,28.3.4l-.7,150.9c0,10.6,1.4,16.9,12,16.9l158.8,2.5c6.6,0,12.8-3,16.9-8.3s5.3-11.9,3.8-18.3c-6.6-26-22.2-47.9-41.1-66.8l-72.1-76.1C280.5,15.6,243,0,203.1,0H45.9C20.6,0,0,20.6,0,45.9v420.2c0,25.4,20.6,45.9,45.9,45.9h274.1c30.5,0,59.7-13.2,80-36.1,7.9-8.7,7-22.4-1.9-30.1h0ZM256,56.7c8.1,4.7,15.6,10.5,22.4,17.3l74.2,74.2c6.6,6.6,12.4,14.3,17.1,22.4h-113.9V56.7h.2ZM493.4,385.9l-34.3,34.3c-4.3,4.3-9.6,6.2-15.1,6.2s-10.9-2.1-15.1-6.2c-8.3-8.3-8.3-21.8,0-30.1l27.5-27.5h-167.8c-21.9-18.5-8.7-42.7,9.9-42.7h157.9l-34.8-34.8c-1.6-28.3,24.3-35.9,37.4-22.8l34.3,34.3c24.5,24.5,24.5,64.6,0,89.4l.2-.2h0Z"/>
  <g class="st1">
    <path fill="currentColor" d="M1154.5,85.9h90.9c12.6,0,22.7,10.2,22.7,22.7v363.6c0,12.6-10.2,22.7-22.7,22.7h-409.1c-12.6,0-22.7-10.2-22.7-22.7V108.6c0-12.6,10.2-22.7,22.7-22.7h90.9v-45.5h45.5v45.5h136.4v-45.5h45.5v45.5ZM1109.1,131.3h-136.4v45.5h-45.5v-45.5h-68.2v90.9h363.6v-90.9h-68.2v45.5h-45.5v-45.5ZM1222.7,267.7h-363.6v181.8h363.6v-181.8Z"/>
  </g>
</svg>
