<svg xmlns="http://www.w3.org/2000/svg" xmlns:xlink="http://www.w3.org/1999/xlink" fill="none" version="1.1" width="24" height="24" viewBox="0 0 24 24"><defs><clipPath id="master_svg0_4_8369"><rect x="0" y="0" width="24" height="24" rx="0"/></clipPath></defs><g clip-path="url(#master_svg0_4_8369)"><g><path d="M6,21.50000004196167C4.067,21.50000004196167,2.5,19.93300004196167,2.5,18.00000004196167C2.5,16.06700004196167,4.067,14.50000004196167,6,14.50000004196167C7.585,14.50000004196167,8.924,15.55400004196167,9.355,17.00000004196167L15,17.00000004196167L15,15.00000004196167L17,15.00000004196167L17,9.24200004196167L14.757,7.00000004196167L9,7.00000004196167L9,9.00000004196167L3,9.00000004196167L3,3.0000000419616697L9,3.0000000419616697L9,5.00000004196167L14.757,5.00000004196167L18,1.75600004196167L22.243,6.00000004196167L19,9.24100004196167L19,15.00000004196167L21,15.00000004196167L21,21.00000004196167L15,21.00000004196167L15,19.00000004196167L9.355,19.00000004196167C8.925,20.44600004196167,7.585,21.50000004196167,6,21.50000004196167Z" fill="currentColor" fill-opacity="1" style="mix-blend-mode:passthrough"/></g></g></svg>