<?xml version="1.0" encoding="UTF-8"?>
<svg id="_Слой_1" xmlns="http://www.w3.org/2000/svg" version="1.1" xmlns:xlink="http://www.w3.org/1999/xlink" viewBox="0 0 512 512">
  <!-- Generator: Adobe Illustrator 29.7.1, SVG Export Plug-In . SVG Version: 2.1.1 Build 8)  -->
  <defs>
    <style>
      .st0 {
        fill: none;
      }

      .st1 {
        clip-path: url(#clippath);
      }
    </style>
    <clipPath id="clippath">
      <rect class="st0" x="471.1" y="52.4" width="472.9" height="472.9"/>
    </clipPath>
  </defs>
  <path fill="currentColor" d="M288.8,504.5c-37.2-.1-67.4-30.4-67.4-67.6v-60c0-17.8,11.5-33.1,28.3-38.2v-21c0-44.6,36.3-80.8,80.8-80.8s80.8,36.3,80.8,80.8v21.1c16.8,5.1,28.3,20.4,28.3,38.2v60c0,37.2-30.2,67.4-67.4,67.4h-83.4ZM261.4,371.5c-3.1,0-5.5,2.5-5.5,5.5v60c0,18.1,14.8,32.9,32.9,32.9h83.4c18.1,0,32.9-14.9,32.9-33.1v-59.9c0-3.1-2.5-5.5-5.5-5.5h-138.1ZM376.8,336.8v-19.1c0-25.5-20.8-46.3-46.3-46.3s-46.3,20.8-46.3,46.3v19.1h92.7Z"/>
  <path fill="currentColor" d="M288.8,500.5c-35,0-63.4-28.6-63.4-63.6v-60c0-17,11.8-31.5,28.3-35.1v-24c0-42.4,34.5-76.8,76.8-76.8s76.8,34.5,76.8,76.8v24.2c16.5,3.6,28.3,18.2,28.3,35.1v60c0,35-28.4,63.4-63.4,63.4h-83.4ZM261.4,367.5c-5.3,0-9.5,4.3-9.5,9.5v60c0,20.4,16.6,36.9,36.9,36.9h83.4c20.3,0,36.9-16.7,36.9-37.1v-59.9c0-5.3-4.3-9.5-9.5-9.5h-138.1ZM380.8,340.8v-23.1c0-27.8-22.6-50.3-50.3-50.3s-50.3,22.6-50.3,50.3v23.1h100.7Z"/>
  <path fill="currentColor" d="M288.8,502.7c-36.2,0-65.6-29.6-65.6-65.8v-60c0-17.4,11.7-32.4,28.3-36.9v-22.3c0-43.6,35.5-79.1,79.1-79.1s79.1,35.5,79.1,79.1v22.5c16.6,4.5,28.3,19.5,28.3,36.9v60c0,36.2-29.4,65.6-65.6,65.6h-83.4ZM261.4,369.8c-4,0-7.3,3.3-7.3,7.3v60c0,19.1,15.6,34.7,34.7,34.7h83.4c19.1,0,34.7-15.7,34.7-34.9v-59.9c0-4-3.3-7.3-7.3-7.3h-138.1ZM378.5,338.6v-20.9c0-26.5-21.6-48.1-48.1-48.1s-48.1,21.6-48.1,48.1v20.9h96.2Z"/>
  <path fill="currentColor" d="M288.8,498.7c-34,0-61.6-27.8-61.6-61.8v-60c0-16.7,12.1-30.8,28.3-33.7v-25.5c0-41.4,33.7-75.1,75.1-75.1s75.1,33.7,75.1,75.1v25.7c16.1,2.9,28.3,16.9,28.3,33.7v60c0,34-27.6,61.6-61.6,61.6h-83.4ZM261.4,365.8c-6.2,0-11.3,5.1-11.3,11.3v60c0,21.3,17.4,38.7,38.7,38.7h83.4c21.3,0,38.7-17.5,38.7-38.9v-59.9c0-6.2-5.1-11.3-11.3-11.3h-138.1ZM382.5,342.6v-24.9c0-28.7-23.4-52.1-52.1-52.1s-52.1,23.4-52.1,52.1v24.9h104.2Z"/>
  <path fill="currentColor" d="M288.8,500.1c-34.7,0-63-28.4-63-63.2v-60c0-17,11.9-31.4,28.3-34.8v-24.4c0-42.1,34.3-76.4,76.4-76.4s76.4,34.3,76.4,76.4v24.5c16.3,3.4,28.3,17.8,28.3,34.8v60c0,34.7-28.3,63-63,63h-83.4ZM261.4,367.1c-5.5,0-10,4.5-10,10v60c0,20.6,16.7,37.3,37.3,37.3h83.4c20.6,0,37.3-16.9,37.3-37.5v-59.9c0-5.5-4.5-10-10-10h-138.1ZM381.2,341.3v-23.6c0-28-22.8-50.7-50.7-50.7s-50.7,22.8-50.7,50.7v23.6h101.5Z"/>
  <path fill="currentColor" d="M288.8,496.1c-32.5,0-59-26.6-59-59.2v-60c0-16.2,12.3-29.7,28.3-31.4v-27.8c0-39.9,32.5-72.4,72.4-72.4s72.4,32.5,72.4,72.4v28c16,1.7,28.3,15.2,28.3,31.4v60c0,32.5-26.5,59-59,59h-83.4ZM261.4,363.1c-7.7,0-14,6.3-14,14v60c0,22.8,18.5,41.3,41.3,41.3h83.4c22.8,0,41.3-18.7,41.3-41.5v-59.9c0-7.7-6.3-14-14-14h-138.1ZM385.2,345.3v-27.6c0-30.2-24.6-54.7-54.7-54.7s-54.7,24.6-54.7,54.7v27.6h109.5Z"/>
  <path fill="currentColor" d="M288.8,498.3c-33.8,0-61.2-27.6-61.2-61.4v-60c0-16.6,12.1-30.6,28.3-33.3v-25.8c0-41.2,33.5-74.6,74.6-74.6s74.6,33.5,74.6,74.6v26c16.1,2.7,28.3,16.7,28.3,33.3v60c0,33.8-27.5,61.2-61.2,61.2h-83.4ZM261.4,365.3c-6.5,0-11.7,5.3-11.7,11.7v60c0,21.6,17.5,39.1,39.1,39.1h83.4c21.5,0,39.1-17.7,39.1-39.3v-59.9c0-6.5-5.3-11.7-11.7-11.7h-138.1ZM382.9,343v-25.3c0-29-23.6-52.5-52.5-52.5s-52.5,23.6-52.5,52.5v25.3h105Z"/>
  <path fill="currentColor" d="M330.4,247.1c-39,0-70.6,31.6-70.6,70.6v29.4c-15.8.9-28.3,14-28.3,29.8v60c0,31.6,25.5,57.3,57.2,57.4h83.4c31.6,0,57.2-25.6,57.2-57.2v-60c0-15.8-12.5-28.9-28.3-29.8v-29.6c0-39-31.6-70.6-70.6-70.6ZM330.4,261.2c31.2,0,56.5,25.3,56.5,56.5v29.3h-113v-29.3c0-31.2,25.3-56.5,56.5-56.5ZM415.2,376.9v60c0,23.8-19.2,43.2-43.1,43.3h-83.4c-23.8,0-43.1-19.3-43.1-43.1v-60c0-8.7,7.1-15.7,15.7-15.7h138.1c8.7,0,15.7,7.1,15.7,15.7v-.2Z"/>
  <path fill="currentColor" d="M733,573.4c-7.1,0-12.8-5.8-12.8-12.8v-17.3c-10.2-4.9-17-15.4-17-26.9,0-16.4,13.4-29.7,29.8-29.7s24.6,8.5,28.5,21c2.3,7.6,1.6,15.6-2.2,22.6-3,5.7-7.7,10.2-13.5,12.9v17.3c0,7.1-5.8,12.8-12.8,12.8ZM733,512.3c-2.3,0-4.1,1.8-4.1,4.1s1.8,4.1,4.1,4.1c2.3,0,4.1-1.8,4.1-4.1s-1.8-4.1-4.1-4.1Z"/>
  <path fill="currentColor" d="M676.5,543.9c-4.9,0-8.8-4-8.8-8.8v-19.9c-10-3.7-17-13.4-17-24.2s11.6-25.7,25.8-25.7,21.3,7.3,24.6,18.2c2,6.6,1.3,13.5-1.9,19.6-3,5.7-7.9,10-13.9,12.1v19.9c0,4.9-4,8.8-8.8,8.8ZM676.5,482.9c-4.5,0-8.1,3.6-8.1,8.1s3.6,8.1,8.1,8.1c4.5,0,8.1-3.6,8.1-8.1s-3.6-8.1-8.1-8.1Z"/>
  <path fill="currentColor" d="M717.5,580.8c-6.1,0-11.1-5-11.1-11.1v-18.4c-10.1-4.4-17-14.6-17-25.7s12.6-27.9,28-27.9,23.2,7.9,26.8,19.8c2.2,7.1,1.5,14.7-2,21.3-3,5.7-7.8,10.1-13.7,12.6v18.4c0,6.1-5,11.1-11.1,11.1ZM717.5,519.8c-3.2,0-5.9,2.6-5.9,5.9s2.6,5.9,5.9,5.9c3.3,0,5.9-2.6,5.9-5.9s-2.6-5.9-5.9-5.9Z"/>
  <path fill="currentColor" d="M332.8,385.2c-13.2,0-24,10.7-24,23.9s6.9,19.9,17,23v21.2c0,3.9,3.2,7.1,7.1,7.1s7.1-3.2,7.1-7.1v-21.2c12.6-3.9,19.8-17.3,15.9-29.9-3.1-10.1-12.4-17-23-17ZM332.8,419.1c-5.5,0-9.9-4.4-9.9-9.9s4.4-9.9,9.9-9.9,9.9,4.4,9.9,9.9-4.4,9.8-9.9,9.9Z"/>
  <path fill="currentColor" d="M61.4,448c-10.3-.1-19.8-4.2-26.9-11.5-7.1-7.3-11-16.9-10.9-27.1V66.2c.2-18.9,15.8-34.2,34.6-34.2h120.4c19.3.3,34.7,15.5,34.9,34.8v21.3c0,.2.2.4.4.4h219c19.9,0,34.9,14.2,34.9,33.1v9.9c15.8,2.9,27.9,16.8,28.3,33.1v249.5c-.4,18.7-15.8,33.9-34.4,33.9h-.7s-10.4,0-10.4,0c-9.5,0-17.2-7.7-17.2-17.2s7.7-17.2,17.2-17.2h10.8s.2,0,.2,0v-248H100.4s0,244.1,0,244.1c0,1.3,0,2.6-.2,3.9h110.1c9.5,0,17.2,7.7,17.2,17.2s-7.7,17.2-17.2,17.2H61.4ZM58,409.5c0,2.2,1.8,3.9,3.9,3.9h1.1c1.7-.2,3-1.7,2.9-3.3v-.4s0-245,0-245c.4-18.7,15.8-33.9,34.4-33.9s.5,0,.7,0h332.2v-7.9c-.2,0-.3,0-.5,0h-218.9c-19.2,0-34.9-15.7-34.9-34.9v-21c0-.5-.4-.6-.7-.6H58.1s0,0,0,0v343Z"/>
  <path fill="currentColor" d="M61.4,444c-9.1-.1-17.7-3.8-24.1-10.3-6.4-6.5-9.8-15.1-9.7-24.2V66.2c.2-16.7,13.9-30.2,30.6-30.2h120.4c17.1.2,30.7,13.8,30.9,30.8v21.3c0,2.4,2,4.4,4.4,4.4h219c17.6,0,30.9,12.5,30.9,29.1v13.4c15.4,1.1,27.9,14.1,28.3,29.7v249.4c-.3,16.5-14,29.9-30.4,29.9s-.4,0-.6,0h-10.5c-7.3,0-13.2-5.9-13.2-13.2s5.9-13.2,13.2-13.2h10.7c0,0,.3,0,.4,0,2.1,0,3.8-1.6,3.9-3.5v-248.9c-.2-2-1.9-3.5-3.9-3.5,0,0-.3,0-.3,0H100.7c0,0-.3,0-.4,0-2.1,0-3.8,1.6-3.9,3.5v244.6c0,2.7-.3,5.4-.9,7.9h114.8c7.3,0,13.2,5.9,13.2,13.2s-5.9,13.2-13.2,13.2H61.4ZM58.1,62.5c-2.2,0-4,1.7-4.1,3.9v343.2c0,4.4,3.6,7.9,7.9,7.9h1.3c3.9-.3,6.9-3.7,6.7-7.6v-.2s0-244.9,0-244.9c.3-16.5,14-29.9,30.4-29.9s.4,0,.6,0h336.3v-13.3c0-2.5-4.4-2.6-4.4-2.6h-219c-17,0-30.9-13.9-30.9-30.9v-21.1c0-2.5-2-4.4-4.6-4.5H58.3s-.2,0-.2,0Z"/>
  <path fill="currentColor" d="M61.4,446.2c-9.8-.1-18.9-4-25.7-11-6.8-6.9-10.5-16.1-10.4-25.8V66.2c.2-17.9,15-32.4,32.8-32.4h120.4c18.4.2,32.9,14.7,33.1,33v21.3c0,1.2,1,2.2,2.2,2.2h219c18.9,0,33.1,13.4,33.1,31.3v11.4c15.6,2.2,27.9,15.6,28.3,31.6v249.4c-.3,17.7-15,32.1-32.6,32.1s-.4,0-.7,0h-10.4c-8.5,0-15.5-6.9-15.5-15.5s6.9-15.5,15.5-15.5h10.9s.3,0,.3,0c.8,0,1.6-.6,1.7-1.4v-248.7c0-.8-.8-1.4-1.7-1.4h-.4s-360.6,0-360.6,0h-.3c-.8,0-1.6.6-1.7,1.4v244.5c0,1.9-.1,3.8-.4,5.7h112.1c8.5,0,15.5,6.9,15.5,15.5s-6.9,15.5-15.5,15.5H61.4ZM56.3,409.5c0,3.2,2.6,5.7,5.7,5.7h1.2c2.7-.3,4.7-2.6,4.5-5.2v-.2s0-245,0-245c.4-17.7,15-32.1,32.7-32.1s.4,0,.7,0h334v-10.9c-.4-.2-1.3-.5-2.2-.5h-219c-18.3,0-33.1-14.9-33.1-33.1v-21c0-1.3-1-2.3-2.4-2.4H58.1c-.9,0-1.8.8-1.8,1.7v343.1Z"/>
  <path fill="currentColor" d="M61.4,442.2c-17.9-.2-32.3-14.9-32.1-32.7V66.2c.2-15.7,13.1-28.4,28.8-28.4h120.4c16.2.2,28.9,13,29.1,29.1v21.2c0,3.4,2.8,6.2,6.2,6.2h219c16.6,0,29.1,11.7,29.1,27.3v15.1c15.3.2,28,12.7,28.3,28v249.4c-.3,15.5-13.2,28.1-28.6,28.1s-.4,0-.6,0h-10.5c-6.3,0-11.5-5.1-11.5-11.5s5.1-11.5,11.5-11.5h10.7s.3,0,.4,0c3,0,5.5-2.3,5.7-5.3v-249c-.2-3-2.7-5.3-5.7-5.3s-.4,0-.4,0H100.7s-.3,0-.4,0c-3,0-5.5,2.3-5.7,5.3v244.7c0,3.3-.5,6.6-1.4,9.7h117c6.3,0,11.5,5.1,11.5,11.5s-5.1,11.5-11.5,11.5H61.4ZM52.3,409.5c0,5.4,4.4,9.7,9.7,9.7h1.4c4.9-.4,8.7-4.6,8.4-9.5h0v-245c.3-15.5,13.2-28.1,28.7-28.1s.4,0,.6,0h338.1v-15.1c0-3.4-4-4.3-6.2-4.3h-219c-16.1,0-29.1-13.1-29.1-29.1v-21.1c-.1-3.4-2.8-6.1-6.3-6.3H58.3s-.2,0-.2,0c-3.1,0-5.7,2.5-5.9,5.6v343.2Z"/>
  <path fill="currentColor" d="M61.4,443.6c-18.7-.2-33.6-15.5-33.4-34.1V66.2c.2-16.4,13.7-29.8,30.2-29.8h120.4c16.9.2,30.3,13.6,30.5,30.4v21.3c0,2.7,2.2,4.8,4.8,4.8h219c17.4,0,30.5,12.3,30.5,28.6v13.8c15.4.9,27.9,13.7,28.3,29.3v249.4c-.3,16.3-13.8,29.4-30,29.4h-.6s-10.5,0-10.5,0c-7.1,0-12.8-5.8-12.8-12.8s5.8-12.8,12.8-12.8h10.8c.2,0,.2,0,.3,0,2.3,0,4.2-1.7,4.3-4v-249c-.1-2.2-2-3.9-4.3-3.9s-.4,0-.4,0H100.7c-.1,0-.2,0-.3,0-2.3,0-4.2,1.7-4.3,4v244.6c0,2.8-.3,5.6-1,8.4h115.3c7.1,0,12.8,5.8,12.8,12.8s-5.8,12.8-12.8,12.8H61.4ZM53.6,409.5c0,4.6,3.8,8.4,8.4,8.4h1.3c4.1-.3,7.3-3.9,7.1-8v-.3s0-244.8,0-244.8c.3-16.3,13.8-29.4,30-29.4s.4,0,.6,0h336.7v-13.8c0-2.9-4.8-3-4.8-3h-219c-16.8,0-30.5-13.7-30.5-30.5v-21.1c-.1-2.7-2.2-4.8-5-4.9H58.5s-.4,0-.4,0c-2.4,0-4.4,1.9-4.5,4.3v343.2Z"/>
  <path fill="currentColor" d="M61.4,439.6c-16.4-.2-29.6-13.7-29.4-30V66.2c.2-14.2,11.9-25.8,26.2-25.8h120.4c14.7.2,26.3,11.8,26.5,26.5v21.2c0,4.9,4,8.8,8.8,8.8h219c15.1,0,26.5,10.6,26.5,24.6v17.7h1.8c.1,0,.3,0,.5,0,14.1,0,25.7,11.4,26,25.4v249.3c-.3,14-11.9,25.4-26,25.4s-.4,0-.5,0h-10.6c-4.9,0-8.8-4-8.8-8.8s4-8.8,8.8-8.8h10.6c.2,0,.4,0,.5,0,4.5,0,8.1-3.5,8.3-7.9v-249.2c-.2-4.3-3.9-7.8-8.3-7.8s-.3,0-.4,0H100.8c-.2,0-.4,0-.5,0-4.5,0-8.1,3.5-8.3,7.9v244.7c0,4.3-.8,8.5-2.5,12.4h120.8c4.9,0,8.8,4,8.8,8.8s-4,8.8-8.8,8.8H61.4ZM58.1,58.1c-4.6,0-8.4,3.6-8.5,8.2v343.3c0,6.8,5.5,12.4,12.4,12.4h1.4c6.4-.4,11.3-5.9,10.9-12.3h0v-244.9c.3-14,11.9-25.4,26-25.4s.3,0,.5,0h340.8v-17.7c0-4.8-4.6-7-8.8-7h-219c-14.6,0-26.5-11.9-26.5-26.5v-21.2c-.1-4.9-4-8.7-8.9-8.8H58.5s-.3,0-.3,0Z"/>
  <path fill="currentColor" d="M61.4,441.8c-17.7-.2-31.8-14.7-31.6-32.3V66.2c.2-15.5,12.9-28,28.4-28h120.4c15.9.2,28.5,12.8,28.7,28.7v21.2c0,3.6,3,6.6,6.6,6.6h219c16.4,0,28.7,11.6,28.7,26.9v15.5h0c15.3,0,27.9,12.4,28.2,27.6v249.4c-.3,15.3-13,27.7-28.2,27.7s-.4,0-.6,0h-10.5c-6.1,0-11.1-5-11.1-11.1s5-11.1,11.1-11.1h10.7s.3,0,.4,0c3.2,0,5.9-2.5,6.1-5.7v-249.1c-.2-3.2-2.9-5.7-6.1-5.7s-.5,0-.5,0H100.7s-.3,0-.4,0c-3.2,0-5.9,2.5-6.1,5.7v244.7c0,3.5-.5,6.9-1.5,10.1h117.6c6.1,0,11.1,5,11.1,11.1s-5,11.1-11.1,11.1H61.4ZM51.9,409.5c0,5.6,4.5,10.1,10.1,10.1h1.4c5.1-.4,9.1-4.8,8.8-9.9h0v-245c.3-15.3,13-27.7,28.2-27.7s.4,0,.6,0h338.5v-15.5c0-3.8-4.3-4.7-6.6-4.7h-219c-15.8,0-28.7-12.9-28.7-28.7v-21.1c-.1-3.7-3-6.5-6.7-6.7H58.1c-3.3,0-6.1,2.7-6.3,6v343.2Z"/>
  <path fill="currentColor" d="M461.1,141.1h-3.5v-19.5c0-13.1-10.6-22.9-24.7-22.9h-219c-5.8,0-10.6-4.8-10.6-10.6v-21.2c-.2-13.6-11.1-24.5-24.7-24.7H58.5c-13.4-.2-24.5,10.6-24.7,24v343.3c-.2,15.5,12.2,28.1,27.6,28.3h149c3.9,0,7.1-3.2,7.1-7.1s-3.2-7.1-7.1-7.1h-123.6c2.4-4.3,3.5-9.2,3.5-14.1v-244.8c.3-5.6,5-9.8,10.6-9.5h360.3c5.6-.3,10.3,4,10.6,9.5v249.3c-.3,5.6-5,9.8-10.6,9.5h-10.6c-3.9,0-7.1,3.2-7.1,7.1s3.2,7.1,7.1,7.1h10.6c13.3.3,24.5-10.3,24.7-23.7v-249.3c-.3-13.3-11.4-23.9-24.7-23.7ZM76.1,164.8v244.8c.4,7.4-5.2,13.7-12.6,14.1h-1.5c-7.8,0-14.1-6.4-14.1-14.1V66.2c.2-5.7,4.9-10.1,10.6-9.9h120.1c5.8.2,10.4,4.8,10.6,10.6v21.2c0,13.7,11,24.7,24.7,24.7h219c5.3,0,10.6,3,10.6,8.7v19.5H100.8c-13.3-.3-24.5,10.3-24.7,23.7Z"/>
  <g class="st1">
    <path fill="currentColor" d="M806,111.5h78.8c10.9,0,19.7,8.8,19.7,19.7v315.3c0,10.9-8.8,19.7-19.7,19.7h-354.7c-10.9,0-19.7-8.8-19.7-19.7V131.2c0-10.9,8.8-19.7,19.7-19.7h78.8v-39.4h39.4v39.4h118.2v-39.4h39.4v39.4ZM766.6,150.9h-118.2v39.4h-39.4v-39.4h-59.1v78.8h315.3v-78.8h-59.1v39.4h-39.4v-39.4ZM865.2,269.1h-315.3v157.6h315.3v-157.6Z"/>
  </g>
</svg>