<?xml version="1.0" encoding="UTF-8"?>
<svg id="Capa_1" xmlns="http://www.w3.org/2000/svg" version="1.1" viewBox="0 0 512 512">
  <!-- Generator: Adobe Illustrator 29.7.1, SVG Export Plug-In . SVG Version: 2.1.1 Build 8)  -->
  <g>
    <path fill="currentColor" d="M15,515c-9.9,0-18-8.1-18-18v-84.9c0-4.8,1.9-9.3,5.3-12.7l184.5-184.5c-9-28.9-10.1-59.7-3-89.2,7.2-30.2,22.6-57.7,44.5-79.6C259.9,14.5,302.1-3,347.1-3s87.1,17.5,118.8,49.1c65.5,65.5,65.5,172.1,0,237.6-31.7,31.7-73.8,49.1-118.7,49.1s-33.9-2.6-50.1-7.7l-36,35.6c-3.4,3.4-7.9,5.2-12.7,5.2h-24.4v24.9c0,5.1-2.2,10-6,13.4-3.3,2.9-7.6,4.6-12,4.6s-1.4,0-2.1-.1l-19.7-2.3-2.7,28.5c-.8,8.6-7.6,15.4-16.2,16.2l-28.5,2.7,2.3,19.7c.6,5.5-1.2,10.9-5.2,14.8l-21.2,21.2c-3.4,3.4-7.9,5.3-12.7,5.3H15ZM92.4,479l9.8-9.8-3.4-29.4c-.6-4.8.9-9.7,3.9-13.4,3-3.7,7.5-6.1,12.3-6.6l32-3,3-32c.5-4.8,2.9-9.3,6.6-12.3,3.2-2.6,7.2-4,11.3-4s1.4,0,2.1.1l17.9,2.1v-22.7c0-9.9,8.1-18,18-18h35l38.7-38.3c3.4-3.4,7.9-5.2,12.7-5.2s4.5.4,6.6,1.2c15.5,6,31.7,9.1,48.3,9.1,35.3,0,68.4-13.7,93.2-38.6,51.5-51.5,51.5-135.2,0-186.7-24.9-24.9-58-38.6-93.4-38.6s-68.5,13.7-93.4,38.6c-37,37-48.6,92.6-29.4,141.5,2.6,6.7,1,14.2-4,19.3L33,419.6v59.4h59.4Z"/>
    <path fill="currentColor" d="M15,513c-8.8,0-16-7.2-16-16v-84.9c0-4.3,1.7-8.3,4.7-11.3l185.4-185.4c-9.2-28.9-10.4-59.7-3.4-89.3,7.1-29.8,22.3-57,44-78.7C261,16.2,302.7-1,347.1-1s86.1,17.2,117.4,48.5c64.7,64.7,64.7,170.1,0,234.8-31.3,31.3-72.9,48.5-117.3,48.5s0,0,0,0c-17.2,0-34.3-2.7-50.7-7.9l-36.8,36.4c-3,3-7,4.6-11.2,4.6h-26.4v26.9c0,4.6-2,8.9-5.4,12-2.9,2.6-6.7,4.1-10.6,4.1s-1.2,0-1.9-.1l-21.8-2.5-2.9,30.6c-.7,7.6-6.8,13.7-14.4,14.4l-30.6,2.9,2.5,21.8c.6,4.9-1.1,9.7-4.6,13.2l-21.2,21.2c-3,3-7,4.7-11.3,4.7H15ZM93.2,481l11.1-11.1-3.5-30.3c-.5-4.2.8-8.6,3.5-11.9,2.7-3.3,6.7-5.5,10.9-5.9l33.7-3.2,3.2-33.7c.4-4.3,2.5-8.2,5.9-10.9,2.8-2.3,6.4-3.6,10.1-3.6s1.2,0,1.8.1l20.2,2.3v-25c0-8.8,7.2-16,16-16h35.9l39.3-38.8c3-3,7-4.6,11.3-4.6s4,.4,5.8,1.1c15.7,6.1,32.2,9.3,49,9.3,35.8,0,69.4-13.9,94.7-39.1,52.3-52.3,52.3-137.3,0-189.5-25.3-25.3-58.9-39.2-94.8-39.2s-69.5,13.9-94.8,39.2c-37.6,37.6-49.3,94-29.9,143.6,2.3,5.9.9,12.6-3.6,17.1L31,418.8v62.2h62.2Z"/>
    <path fill="currentColor" d="M15,514c-9.4,0-17-7.6-17-17v-84.9c0-4.5,1.8-8.8,5-12l184.9-184.9c-9.1-28.9-10.2-59.7-3.2-89.2,7.2-30,22.5-57.4,44.2-79.1C260.4,15.3,302.4-2,347.1-2s86.6,17.3,118.1,48.8c65.1,65.1,65.1,171.1,0,236.2-31.5,31.5-73.4,48.8-118,48.8s0,0,0,0c-17.1,0-34.1-2.6-50.4-7.8l-36.4,36c-3.2,3.2-7.4,4.9-12,4.9h-25.4v25.9c0,4.8-2.1,9.5-5.7,12.7-3.1,2.8-7.1,4.3-11.3,4.3s-1.3,0-2-.1l-20.8-2.4-2.8,29.6c-.8,8.1-7.2,14.6-15.3,15.3l-29.5,2.8,2.4,20.8c.6,5.2-1.2,10.3-4.9,14l-21.2,21.2c-3.2,3.2-7.5,5-12,5H15ZM92.8,480l10.4-10.4-3.5-29.8c-.5-4.5.8-9.1,3.7-12.7s7.1-5.8,11.6-6.2l32.8-3.1,3.1-32.8c.4-4.5,2.7-8.8,6.2-11.6,3-2.4,6.8-3.8,10.7-3.8s1.3,0,2,.1l19,2.2v-23.8c0-9.4,7.6-17,17-17h35.4l39-38.6c3.2-3.2,7.4-4.9,12-4.9s4.2.4,6.2,1.2c15.6,6.1,31.9,9.2,48.6,9.2,35.5,0,68.9-13.8,93.9-38.8,51.9-51.9,51.9-136.3,0-188.1-25.1-25.1-58.5-38.9-94.1-38.9s-69,13.8-94.1,38.9c-37.3,37.3-48.9,93.3-29.7,142.6,2.5,6.3,1,13.4-3.8,18.2L32,419.2v60.8h60.8Z"/>
    <path fill="currentColor" d="M463.7,48.3c-64.3-64.3-169-64.3-233.4,0-43.9,43.9-59.2,108.7-40.2,167.5L4.4,401.5c-2.8,2.8-4.4,6.6-4.4,10.6v84.9c0,8.3,6.7,15,15,15h84.9c4,0,7.8-1.6,10.6-4.4l21.2-21.2c3.2-3.2,4.8-7.8,4.3-12.3l-2.6-22.8,31.6-3c7.2-.7,12.9-6.4,13.5-13.5l3-31.6,22.8,2.6c4.3.5,8.5-.9,11.7-3.7,3.2-2.8,5-6.9,5-11.2v-27.9h27.4c3.9,0,7.7-1.6,10.5-4.3l37.3-36.8c58.8,19.1,123.6,3.8,167.5-40.2,64.3-64.3,64.3-169,0-233.4ZM442.5,260.4c-37.9,37.9-94.7,49.7-144.7,30.1-5.5-2.2-11.8-.9-16,3.3l-39.6,39.1h-36.3c-8.3,0-15,6.7-15,15v26.1l-21.3-2.5c-4-.5-8,.7-11.2,3.2-3.1,2.5-5.1,6.2-5.5,10.3l-3.3,34.5-34.5,3.2c-4,.4-7.7,2.4-10.3,5.5-2.5,3.1-3.7,7.2-3.2,11.2l3.6,30.8-11.7,11.7H30v-63.6l188.1-188.1c4.2-4.2,5.5-10.5,3.4-16.1-19.6-50-7.8-106.8,30.1-144.7,52.6-52.6,138.3-52.6,190.9,0,52.6,52.6,52.6,138.3,0,190.9Z"/>
  </g>
  <g>
    <path fill="currentColor" d="M389.5,170.5c-12.8,0-24.9-5-33.9-14-9.1-9.1-14-21.1-14-33.9s5-24.9,14-33.9c9.1-9.1,21.1-14,33.9-14s24.9,5,33.9,14c9.1,9.1,14,21.1,14,33.9s-5,24.9-14,33.9c-9.1,9.1-21.1,14-33.9,14h0ZM389.5,110.5c-3.2,0-6.2,1.2-8.5,3.5-4.7,4.7-4.7,12.3,0,17,2.3,2.3,5.3,3.5,8.5,3.5s6.2-1.2,8.5-3.5c4.7-4.7,4.7-12.3,0-17-2.3-2.3-5.3-3.5-8.5-3.5Z"/>
    <path fill="currentColor" d="M389.5,168.5c-12.3,0-23.9-4.8-32.5-13.5-17.9-17.9-17.9-47.1,0-65.1,8.7-8.7,20.2-13.5,32.5-13.5s23.9,4.8,32.5,13.5c8.7,8.7,13.5,20.2,13.5,32.5s-4.8,23.9-13.5,32.5c-8.7,8.7-20.2,13.5-32.5,13.5h0ZM389.5,108.5c-3.7,0-7.3,1.5-9.9,4.1-5.5,5.5-5.5,14.3,0,19.8,2.6,2.6,6.2,4.1,9.9,4.1s7.3-1.5,9.9-4.1c5.5-5.5,5.5-14.3,0-19.8-2.6-2.6-6.2-4.1-9.9-4.1Z"/>
    <path fill="currentColor" d="M389.5,169.5c-12.6,0-24.4-4.9-33.2-13.7-8.9-8.9-13.7-20.7-13.7-33.2s4.9-24.4,13.7-33.2c8.9-8.9,20.7-13.7,33.2-13.7s24.4,4.9,33.2,13.7c8.9,8.9,13.7,20.7,13.7,33.2s-4.9,24.4-13.7,33.2c-8.9,8.9-20.7,13.7-33.2,13.7h0ZM389.5,109.5c-3.5,0-6.7,1.4-9.2,3.8-5.1,5.1-5.1,13.3,0,18.4,2.5,2.5,5.7,3.8,9.2,3.8s6.7-1.4,9.2-3.8c5.1-5.1,5.1-13.3,0-18.4-2.5-2.5-5.7-3.8-9.2-3.8Z"/>
    <path fill="currentColor" d="M421.3,90.7c-17.5-17.5-46.1-17.5-63.6,0-17.5,17.5-17.5,46.1,0,63.6,17.5,17.5,46.1,17.6,63.6,0,17.5-17.5,17.5-46.1,0-63.6ZM400.1,133.1c-5.8,5.8-15.4,5.9-21.2,0s-5.8-15.4,0-21.2c5.9-5.9,15.4-5.9,21.2,0,5.9,5.9,5.9,15.4,0,21.2Z"/>
  </g>
</svg>