<?xml version="1.0" encoding="UTF-8"?>
<svg id="Icons" xmlns="http://www.w3.org/2000/svg" version="1.1" viewBox="0 0 60 60">
  <!-- Generator: Adobe Illustrator 29.7.1, SVG Export Plug-In . SVG Version: 2.1.1 Build 8)  -->
  <path fill="currentColor" d="M56.6,60.5c-.8,0-1.5-.3-2.1-.9l-8.3-8.3c-3.1,2-6.6,3.1-10.3,3.1s-5.3-.6-7.8-1.7c-1.8.9-3.2,1.4-4.1,1.6-.4,0-.7.1-1.1.1s-.7,0-1.1-.1c-3.7-1-22.4-7.7-22.4-37.4v-7c0-1.6,1.2-2.8,2.7-2.9C13.7,6.8,19.2,2.3,21,.4c.5-.5,1.2-.8,2-.8s1.5.3,2,.8c1.8,1.9,7.3,6.5,18.8,6.8,1.5,0,2.7,1.3,2.7,2.9v7c0,1.3,0,2.5-.1,3.7,5.1,3.5,8.1,9.2,8.1,15.3s-1.1,7.2-3.1,10.3l8.3,8.3c1.1,1.1,1.1,3,0,4.1l-1,1c-.5.5-1.3.9-2.1.9ZM56.6,57.5l.9-.9-5.4-5.5-.9.9,5.5,5.5ZM2.5,17c0,27.5,16.8,33.6,20.2,34.5,0,0,.2,0,.3,0s.1,0,.2,0h0c.3-.1,1-.3,1.8-.6-.3-.2-.6-.5-.9-.7-.1,0-.3,0-.4.1-.2,0-.5.1-.7.1s-.5,0-.8-.1c-4.4-1.4-18.7-8.1-18.7-33.3v-3.6c0-1.3,1-2.4,2.3-2.5,7.8-.8,12.9-3.5,15.7-5.7.4-.3,1-.5,1.5-.5s1.1.2,1.5.5c2.8,2.1,7.9,4.8,15.7,5.6,1.3.1,2.3,1.2,2.3,2.5v3.6c0,.6,0,1.2,0,1.7.3.1.7.3,1,.4,0-.7,0-1.4,0-2.1v-6.8c-12.1-.4-18.2-5.2-20.5-7.5-2.3,2.3-8.4,7.1-20.5,7.5v6.8ZM36,20.5c-8.5,0-15.5,7-15.5,15.5s7,15.5,15.5,15.5,15.5-7,15.5-15.5-7-15.5-15.5-15.5ZM49,49.9l.9-.9-.4-.4c-.3.3-.6.6-.9.9l.4.4ZM6.5,17c0,19.4,8.9,26.8,14.2,29.4-2.1-3.1-3.2-6.7-3.2-10.4,0-10.2,8.3-18.5,18.5-18.5s2.3.1,3.5.3c0-.3,0-.6,0-.9v-3.1c-8-.9-13.3-3.7-16.5-6-3.2,2.3-8.5,5.1-16.5,6v3.1Z"/>
  <path fill="currentColor" d="M50.7,46.3c2.1-2.9,3.3-6.5,3.3-10.3,0-6.3-3.2-11.8-8.1-15,0-1.3.1-2.6.1-4v-7c0-1.3-1-2.3-2.3-2.4-11.6-.3-17.2-4.9-19.1-6.9-.9-.9-2.4-.9-3.2,0-1.9,2-7.5,6.6-19.1,6.9C1,7.7,0,8.7,0,10v7C0,46.3,18.4,52.9,22.1,53.9c.3,0,.6.1.9.1s.6,0,.9-.1c1-.3,2.5-.8,4.3-1.7,2.4,1.1,5,1.8,7.8,1.8s7.4-1.2,10.3-3.3l8.6,8.6c.5.5,1.1.7,1.7.7s1.2-.2,1.7-.7l1-1c.9-.9.9-2.5,0-3.4l-8.6-8.6h0ZM23.4,51.9c-.3,0-.5,0-.8,0-3.4-.9-20.6-7.1-20.6-35v-7c0-.2.1-.3.3-.4,12.4-.3,18.5-5.4,20.5-7.5.1-.1.2-.1.4,0,2,2.2,8.2,7.2,20.5,7.6.2,0,.3.2.3.4v7c0,1,0,2,0,2.9-.6-.3-1.3-.6-2-.8,0-.6,0-1.3,0-2.1v-3.6c0-1-.8-1.9-1.8-2-8-.8-13.1-3.6-16-5.7-.7-.6-1.7-.6-2.4,0-2.9,2.2-8,4.9-16,5.8-1,.1-1.8,1-1.8,2v3.6c0,24.9,14.1,31.4,18.4,32.8.2,0,.4.1.6.1s.4,0,.6,0c.2,0,.4-.1.6-.2.6.5,1.2,1,1.8,1.4-1.2.5-2.1.8-2.7,1h0ZM40,17c0,.5,0,1,0,1.5-1.3-.3-2.6-.5-4-.5-9.9,0-18,8.1-18,18s1.6,8.5,4.3,11.6c-4.6-1.8-16.3-8.4-16.3-30.7v-3.6c8.4-.9,13.9-3.8,17-6.1,3.1,2.3,8.6,5.3,17,6.1v3.6h0ZM20,36c0-8.8,7.2-16,16-16s16,7.2,16,16-7.2,16-16,16-16-7.2-16-16ZM49.5,47.9l1.1,1.1-1.6,1.6-1.1-1.1c.6-.5,1.1-1,1.6-1.6ZM57.9,56.9l-1,1c-.2.2-.4.2-.6,0l-5.9-5.9,1.6-1.6,5.9,5.9c.2.2.2.4,0,.6h0Z"/>
  <path fill="currentColor" d="M33,43.5c-.4,0-.8-.2-1.1-.4l-3-3c-.3-.3-.4-.7-.4-1.1s.2-.8.4-1.1.7-.4,1.1-.4.8.2,1.1.4l1.8,1.8,8-10.6c.3-.4.7-.6,1.2-.6s.6.1.9.3c.3.2.5.6.6,1,0,.4,0,.8-.3,1.1l-9,12c-.3.3-.7.6-1.1.6h-.1Z"/>
  <path fill="currentColor" d="M41.2,29.4l-8.3,11.1-2.2-2.2c-.4-.4-1-.4-1.4,0s-.4,1,0,1.4l3,3c.2.2.4.3.7.3s0,0,0,0c.3,0,.6-.2.7-.4l9-12c.3-.4.2-1.1-.2-1.4-.4-.3-1.1-.2-1.4.2Z"/>
</svg>