<svg xmlns="http://www.w3.org/2000/svg" xmlns:xlink="http://www.w3.org/1999/xlink" fill="none" version="1.1" width="24" height="24" viewBox="0 0 24 24"><defs><clipPath id="master_svg0_2_16921"><rect x="0" y="0" width="24" height="24" rx="0"/></clipPath></defs><g clip-path="url(#master_svg0_2_16921)"><g><path d="M5.463,4.433000940093994C7.27756,2.8606599400939943,9.59899,1.9966502200939942,12,2.000000000003994C17.523,2.000000000003994,22,6.477000940093994,22,11.999990940093994C22,14.135990940093993,21.33,16.115990940093994,20.19,17.739990940093996L17,11.999990940093994L20,11.999990940093994C20.0003,8.793930940093993,18.0864,5.897370940093994,15.1372,4.640120940093994C12.1879,3.3828709400939942,8.77291,4.007800940093994,6.46,6.228000940093994L5.463,4.433000940093994ZM18.537,19.566990940093994C16.7224,21.139290940093993,14.401,22.003390940093993,12,21.999990940093994C6.477,21.999990940093994,2,17.522990940093994,2,11.999990940093994C2,9.864000940093995,2.67,7.884000940093994,3.81,6.260000940093994L7,11.999990940093994L4,11.999990940093994C3.99974,15.206090940093993,5.91355,18.102590940093993,8.86282,19.359890940093994C11.81209,20.617090940093995,15.2271,19.992190940093995,17.54,17.771990940093993L18.537,19.566990940093994Z" fill="currentColor" fill-opacity="1" style="mix-blend-mode:passthrough"/></g></g></svg>