<?xml version="1.0" encoding="UTF-8"?>
<svg id="Layer_1" xmlns="http://www.w3.org/2000/svg" version="1.1" xmlns:xlink="http://www.w3.org/1999/xlink" viewBox="0 0 512 512">
  <!-- Generator: Adobe Illustrator 29.7.1, SVG Export Plug-In . SVG Version: 2.1.1 Build 8)  -->
  <defs>
    <style>
      .st0 {
        fill: none;
      }

      .st1 {
        fill-rule: evenodd;
      }

      .st2 {
        clip-path: url(#clippath);
      }
    </style>
    <clipPath id="clippath">
      <rect class="st0" x="791.5" y="119.2" width="276" height="276"/>
    </clipPath>
  </defs>
  <path fill="currentColor" d="M121.5,281.1c-8.6,0-13.8-7-13.8-13.8s1.2-6.5,3.3-8.9c2.4-2.7,5.9-4.2,9.8-4.2,7.6,0,16.8,0,26.8,0,11.7,0,24.3,0,36.5,0s23,0,31.1,0c7.8,0,13.7,5.8,13.7,13.5s-5.9,13.4-13.7,13.4h-93.8Z"/>
  <path fill="currentColor" d="M120.9,261.2c-8.6,0-8,12.9.6,12.9h93.8c8.9,0,8.9-12.9,0-12.9-27.4.2-69.8,0-94.4,0h0Z"/>
  <path fill="currentColor" d="M121.5,338.7c-8.6,0-13.8-7-13.8-13.8s1.2-6.5,3.3-8.9c2.4-2.7,5.9-4.2,9.8-4.2,8.6,0,15.6,0,22.3,0,6,0,11.6,0,17.9,0s14.8,0,23.1,0c7.8,0,13.7,5.8,13.7,13.5s-5.9,13.5-13.7,13.5h-62.7Z"/>
  <path fill="currentColor" d="M120.9,318.8c-8.6,0-8,12.9.6,12.9h62.7c8.9,0,8.9-12.9,0-12.9-27.4.2-38.7,0-63.3,0h0Z"/>
  <path fill="currentColor" d="M121.5,396.4c-8.6,0-13.8-7-13.8-13.8s1.2-6.5,3.3-8.9c2.4-2.7,5.9-4.2,9.8-4.2,8.6,0,15.6,0,22.3,0,6,0,11.6,0,17.9,0s14.8,0,23.1,0c7.8,0,13.7,5.8,13.7,13.5s-5.9,13.5-13.7,13.5h-62.7Z"/>
  <path fill="currentColor" d="M120.9,376.5c-8.6,0-8,12.9.6,12.9h62.7c8.9,0,8.9-12.9,0-12.9-27.4.2-38.7,0-63.3,0h0Z"/>
  <path fill="currentColor" d="M121.5,223.4c-8.6,0-13.8-7-13.8-13.8s1.2-6.5,3.3-8.9c2.4-2.7,5.9-4.2,9.8-4.2,6.9,0,17.5,0,29.7,0,16.9,0,36.9,0,54.9,0s30.4,0,38.6,0c7.8,0,13.7,5.8,13.7,13.5s-5.9,13.4-13.7,13.4h-122.7Z"/>
  <path fill="currentColor" d="M120.9,203.5c-8.6,0-8,12.9.6,12.9h122.7c8.9,0,8.9-12.9,0-12.9-27.4.2-98.7,0-123.3,0h0Z"/>
  <g>
    <path class="st1" d="M225.2,490.3c-.2,0-.3,0-.5,0H65.2c-7.4,0-13.4-6.1-13.4-13.5V143.1c0-3.1,1.1-6.2,3.2-8.7L149.2,26.2h0c2.7-2.9,6.2-4.5,10-4.5h227.8c7.4,0,13.4,6.1,13.4,13.5v152.5c0,3.6-1.3,7.1-3.9,9.7-2.5,2.6-6.1,4.1-9.6,4.1s-7.2-1.5-9.8-4.2c-2.5-2.6-3.8-6.1-3.6-9.7V48.6h-208.1l-70.5,81.1h62.4v-60.3c0-3.5,1.3-7,3.8-9.5,2.5-2.6,5.9-4,9.4-4.1,0,0,.2,0,.3,0,7.3,0,13.3,6.1,13.3,13.5v73.9c0,7.4-6.1,13.4-13.5,13.4h-91.9v306.8s146.2,0,146.3,0c7.5,0,13.6,6.1,13.6,13.5s-6,13.4-13.5,13.4Z"/>
    <path class="st1" d="M159.3,28.7c-1.9,0-3.6.8-4.9,2.2l-94,108c-1,1.2-1.6,2.7-1.6,4.2v333.7c0,3.6,2.9,6.5,6.4,6.5h159.7c3.7.2,6.8-2.8,6.8-6.4s-3.1-6.6-6.8-6.5H71.8V149.6h98.9c3.6,0,6.5-2.9,6.5-6.4v-73.9c0-3.6-2.9-6.6-6.5-6.5-3.5,0-6.4,3-6.3,6.5v67.4h-84.8l82.7-95.1h218.3v146.2c-.2,3.7,2.8,6.7,6.4,6.7s6.6-3.1,6.5-6.7V35.2c0-3.6-2.9-6.5-6.4-6.5h-227.8Z"/>
    <path class="st1" d="M283.5,489.9c-29.6,0-53.6-24-53.6-53.6v-110.9c0-7.4,6-13.5,13.4-13.5h16.3v-32.9c0-44.2,38.2-80.2,85.1-80.2s85.1,36,85.1,80.2v32.9h16.2c7.4,0,13.5,6.1,13.5,13.5v110.9c0,29.6-24,53.6-53.6,53.6h-122.4ZM256.7,436.1c0,15,11.7,26.7,26.7,26.7h122.4c15,0,26.7-11.7,26.7-26.7v-97.4h-175.8v97.4ZM402.9,311.9v-32.9c0-29.4-26.1-53.4-58.2-53.4h-.2c-32.1,0-58.2,24-58.2,53.4v32.9h12.5v-30.2c0-23.8,20.5-43.1,45.8-43.1s45.8,19.3,45.8,43.1v30.2h12.5ZM363.6,311.9v-30.2c0-8.9-8.5-16.2-18.8-16.2-10.4,0-18.8,7.3-18.8,16.2v30.2h37.7ZM344.7,260.1v-8.6s0,8.6,0,8.6Z"/>
    <path class="st1" d="M249.7,331.7h189.8v104.4c0,18.7-14.9,33.7-33.7,33.7h-122.4c-18.8,0-33.7-14.9-33.7-33.7v-104.4ZM344.7,258.5c14.6,0,25.9,10.6,25.9,23.2v37.2h-51.7v-37.2c0-12.6,11.2-23.2,25.9-23.2h0ZM344.7,218.6c36.3,0,65.2,27.2,65.2,60.4v39.9h-26.5v-37.2c0-20.2-17.7-36.1-38.8-36.1s-38.8,15.9-38.8,36.1v37.2h-26.5v-39.9c0-33.2,28.9-60.4,65.2-60.4h.2ZM344.7,205.8c-42.8,0-78.1,32.6-78.1,73.2v39.9h-23.3c-3.6,0-6.4,2.9-6.4,6.5v110.9c0,25.7,20.9,46.6,46.6,46.6h122.4c25.7,0,46.6-20.9,46.6-46.6v-110.9c0-3.5-2.9-6.5-6.5-6.5h-23.2v-39.9c0-40.6-35.3-73.2-78.1-73.2h0Z"/>
    <path class="st1" d="M344.7,367.5c9,0,16.7,7.9,16.7,18.4s-2.9,12-7.5,15.4c-2,1.5-3.1,4-2.5,6.5l5.3,26.3h-23.9l5.3-26.3c.5-2.5-.5-5-2.5-6.5-4.6-3.3-7.5-9.1-7.5-15.4,0-10.5,7.6-18.4,16.7-18.4h-.1ZM344.7,354.6c-16.5,0-29.6,14.3-29.6,31.3s4.9,14.5,10.1,20.3l-6.7,33c-.8,4,2.3,7.7,6.3,7.7h39.8c4.1,0,7.1-3.7,6.3-7.7l-6.7-33c5.2-5.8,10.1-12.3,10.1-20.3,0-17-13-31.3-29.5-31.3h0Z"/>
  </g>
  <g class="st2">
    <path fill="currentColor" d="M987,153.7h46c6.4,0,11.5,5.1,11.5,11.5v184c0,6.4-5.1,11.5-11.5,11.5h-207c-6.4,0-11.5-5.1-11.5-11.5v-184c0-6.4,5.1-11.5,11.5-11.5h46v-23h23v23h69v-23h23v23ZM964,176.7h-69v23h-23v-23h-34.5v46h184v-46h-34.5v23h-23v-23ZM1021.5,245.7h-184v92h184v-92Z"/>
  </g>
</svg>