<svg id="Layer_1" viewBox="0 0 36 36" xmlns="http://www.w3.org/2000/svg" data-name="Layer 1"><g fill-rule="evenodd"><path d="m31.86 20.17a2.32 2.32 0 0 1 -1.25-2.05 2.35 2.35 0 0 1 1.25-2.29 2.8 2.8 0 0 0 1-3.81l-2.27-4.02a2.79 2.79 0 0 0 -3.78-1 2.36 2.36 0 0 1 -2.43 0 2.29 2.29 0 0 1 -1.3-2.22 2.8 2.8 0 0 0 -2.8-2.78h-4.56a2.8 2.8 0 0 0 -2.79 2.79 2.46 2.46 0 0 1 -1.36 2.27 2.29 2.29 0 0 1 -2.34-.06 2.76 2.76 0 0 0 -2.12-.3 2.72 2.72 0 0 0 -1.69 1.3l-2.3 4a2.8 2.8 0 0 0 1 3.81 2.33 2.33 0 0 1 1.25 2 2.35 2.35 0 0 1 -1.25 2.29 2.8 2.8 0 0 0 -1 3.81l2.3 4a2.72 2.72 0 0 0 1.69 1.39 2.88 2.88 0 0 0 2.22-.3 2.37 2.37 0 0 1 2.51.12 2.29 2.29 0 0 1 1.09 1.95 2.82 2.82 0 0 0 .82 2.13 2.75 2.75 0 0 0 2 .82h4.56a2.8 2.8 0 0 0 2.79-2.79 2.36 2.36 0 0 1 1.16-2.13 2.24 2.24 0 0 1 2.51-.1 2.79 2.79 0 0 0 3.82-1l2.29-4a2.8 2.8 0 0 0 -1.02-3.83zm-.3 3-2.29 4a1.29 1.29 0 0 1 -.78.59 1.24 1.24 0 0 1 -1-.13 3.77 3.77 0 0 0 -4.06.05 3.9 3.9 0 0 0 -1.92 3.46 1.24 1.24 0 0 1 -.37.89 1.27 1.27 0 0 1 -.9.38h-4.52a1.27 1.27 0 0 1 -.9-.38 1.32 1.32 0 0 1 -.37-1.05 3.77 3.77 0 0 0 -2-3.37 3.75 3.75 0 0 0 -3.75-.06 1.51 1.51 0 0 1 -1.15.21 1.3 1.3 0 0 1 -.77-.59l-2.29-4a1.27 1.27 0 0 1 .46-1.73 3.86 3.86 0 0 0 2-3.59 3.83 3.83 0 0 0 -2-3.39 1.27 1.27 0 0 1 -.46-1.73l2.29-4a1.3 1.3 0 0 1 .77-.59 1.26 1.26 0 0 1 1 .13 3.77 3.77 0 0 0 4.06-.05 3.9 3.9 0 0 0 1.92-3.46 1.24 1.24 0 0 1 .37-.89 1.27 1.27 0 0 1 .9-.38h4.56a1.27 1.27 0 0 1 .9.38 1.24 1.24 0 0 1 .37.89 3.84 3.84 0 0 0 1.91 3.47 4 4 0 0 0 4.07 0 1.24 1.24 0 0 1 1-.13 1.29 1.29 0 0 1 .78.59l2.29 4a1.27 1.27 0 0 1 -.46 1.73 3.86 3.86 0 0 0 -2 3.59 3.83 3.83 0 0 0 2 3.39 1.27 1.27 0 0 1 .34 1.82z"/><path d="m18 18.76a4.83 4.83 0 1 0 -4.81-4.82 4.81 4.81 0 0 0 4.81 4.82zm0-8.13a3.31 3.31 0 1 1 -3.29 3.31 3.3 3.3 0 0 1 3.29-3.31z"/><path d="m11.15 24.06a.22.22 0 0 1 0-.08.15.15 0 0 0 0 .08z"/><path d="m21.05 20.29h-6.05a3.82 3.82 0 0 0 -3.82 3.78.76.76 0 0 0 .76.76.8.8 0 0 0 .76-.76 2.3 2.3 0 0 1 2.3-2.26h6.08a2.28 2.28 0 0 1 2.28 2.29.66.66 0 0 0 .24.51.73.73 0 0 0 .47.21h.08a.76.76 0 0 0 .72-.76 3.8 3.8 0 0 0 -3.82-3.77z"/></g></svg>