<svg xmlns="http://www.w3.org/2000/svg" xmlns:xlink="http://www.w3.org/1999/xlink" fill="none" version="1.1" width="24" height="24" viewBox="0 0 24 24"><defs><clipPath id="master_svg0_2_16913"><rect x="0" y="0" width="24" height="24" rx="0"/></clipPath></defs><g clip-path="url(#master_svg0_2_16913)"><g><path d="M11,2C15.968,2,20,6.032,20,11C20,15.968,15.968,20,11,20C6.032,20,2,15.968,2,11C2,6.032,6.032,2,11,2ZM11,18C14.867,18,18,14.867,18,11C18,7.132,14.867,4,11,4C7.132,4,4,7.132,4,11C4,14.867,7.132,18,11,18ZM19.485,18.071L22.314,20.899L20.899,22.314L18.071,19.485L19.485,18.071Z" fill="currentColor" fill-opacity="1" style="mix-blend-mode:passthrough"/></g></g></svg>