<svg xmlns="http://www.w3.org/2000/svg" xmlns:xlink="http://www.w3.org/1999/xlink" fill="none" version="1.1" width="24" height="24" viewBox="0 0 24 24"><defs><clipPath id="master_svg0_2_786"><rect x="0" y="0" width="24" height="24" rx="0"/></clipPath></defs><g clip-path="url(#master_svg0_2_786)"><g><path d="M6.17,18.000049057006837C6.5934,16.800049057006838,7.72753,15.997549057006836,9,15.997549057006836C10.27247,15.997549057006836,11.4066,16.800049057006838,11.83,18.000049057006837L22,18.000049057006837L22,20.000049057006837L11.83,20.000049057006837C11.4066,21.199949057006837,10.27247,22.002449057006835,9,22.002449057006835C7.72753,22.002449057006835,6.5934,21.199949057006837,6.17,20.000049057006837L2,20.000049057006837L2,18.000049057006837L6.17,18.000049057006837ZM12.17,10.999999057006836C12.5934,9.800039057006835,13.7275,8.997549057006836,15,8.997549057006836C16.2725,8.997549057006836,17.406599999999997,9.800039057006835,17.83,10.999999057006836L22,10.999999057006836L22,13.000049057006835L17.83,13.000049057006835C17.406599999999997,14.199949057006837,16.2725,15.002449057006835,15,15.002449057006835C13.7275,15.002449057006835,12.5934,14.199949057006837,12.17,13.000049057006835L2,13.000049057006835L2,10.999999057006836L12.17,10.999999057006836ZM6.17,3.999999057006836C6.5934,2.800039057006836,7.72753,1.997549057006836,9,1.997549057006836C10.27247,1.997548937797836,11.4066,2.800039057006836,11.83,3.999999057006836L22,3.999999057006836L22,5.999999057006836L11.83,5.999999057006836C11.4066,7.199959057006836,10.27247,8.002449057006835,9,8.002449057006835C7.72753,8.002449057006835,6.5934,7.199959057006836,6.17,5.999999057006836L2,5.999999057006836L2,3.999999057006836L6.17,3.999999057006836ZM9,5.999999057006836C9.55229,5.999999057006836,10,5.552289057006836,10,4.999999057006836C10,4.447719057006836,9.55229,3.999999057006836,9,3.999999057006836C8.44771,3.999999057006836,8,4.447719057006836,8,4.999999057006836C8,5.552289057006836,8.44771,5.999999057006836,9,5.999999057006836ZM15,13.000049057006835C15.5523,13.000049057006835,16,12.552249057006836,16,12.000049057006835C16,11.447719057006836,15.5523,10.999999057006836,15,10.999999057006836C14.4477,10.999999057006836,14,11.447719057006836,14,12.000049057006835C14,12.552249057006836,14.4477,13.000049057006835,15,13.000049057006835ZM9,20.000049057006837C9.55229,20.000049057006837,10,19.552249057006836,10,19.000049057006837C10,18.447749057006835,9.55229,18.000049057006837,9,18.000049057006837C8.44771,18.000049057006837,8,18.447749057006835,8,19.000049057006837C8,19.552249057006836,8.44771,20.000049057006837,9,20.000049057006837Z" fill="currentColor" fill-opacity="1" style="mix-blend-mode:passthrough"/></g></g></svg>