<?xml version="1.0" encoding="UTF-8"?>
<svg id="Capa_1" xmlns="http://www.w3.org/2000/svg" version="1.1" viewBox="0 0 512 512">
  <!-- Generator: Adobe Illustrator 29.7.1, SVG Export Plug-In . SVG Version: 2.1.1 Build 8)  -->
  <path fill="currentColor" d="M48,515c-28.1,0-51-22.9-51-51V48C-3,19.9,19.9-3,48-3h256c5.1,0,9.9,2,13.5,5.5l96,96c3.5,3.6,5.5,8.5,5.5,13.5v67h-38v-48h-61c-19.3,0-35-15.7-35-35v-61H48c-7.2,0-13,5.8-13,13v416c0,7.2,5.8,13,13,13h115v38H48Z"/>
  <path fill="currentColor" d="M48,513.5c-27.3,0-49.5-22.2-49.5-49.5V48C-1.5,20.7,20.7-1.5,48-1.5h256c4.7,0,9.1,1.8,12.4,5.1l96,96c3.3,3.3,5.1,7.8,5.1,12.4v65.5h-35v-48h-62.5c-18.5,0-33.5-15-33.5-33.5v-62.5H48c-8,0-14.5,6.5-14.5,14.5v416c0,8,6.5,14.5,14.5,14.5h113.5v35H48Z"/>
  <path fill="currentColor" d="M48,512.5c-26.7,0-48.5-21.8-48.5-48.5V48C-.5,21.3,21.3-.5,48-.5h256c4.5,0,8.6,1.7,11.7,4.8l96,96c3.1,3.1,4.8,7.4,4.8,11.7v64.5h-33v-48h-63.5c-17.9,0-32.5-14.6-32.5-32.5v-63.5H48c-8.5,0-15.5,7-15.5,15.5v416c0,8.5,7,15.5,15.5,15.5h112.5v33H48Z"/>
  <path fill="currentColor" d="M32,464V48c0-8.8,7.2-16,16-16h240v64c0,17.7,14.3,32,32,32h64v48h32v-64c0-4.3-1.6-8.3-4.6-11.4L315.4,4.6c-3-3-7.1-4.7-11.4-4.6H48C21.5,0,0,21.5,0,48v416c0,26.5,21.5,48,48,48h112v-32H48c-8.8,0-16-7.2-16-16Z"/>
  <path fill="currentColor" d="M480,320h-32v32h32v32h-64v-96h96c0-17.7-14.3-32-32-32h-64c-17.7,0-32,14.3-32,32v96c0,17.7,14.3,32,32,32h64c17.7,0,32-14.3,32-32v-32c0-17.7-14.3-32-32-32Z"/>
  <path fill="currentColor" d="M304,256c-35.3,0-64,28.7-64,64v32c0,35.3,28.7,64,64,64s64-28.7,64-64v-32c0-35.3-28.7-64-64-64ZM336,352c0,17.7-14.3,32-32,32s-32-14.3-32-32v-32c0-17.7,14.3-32,32-32s32,14.3,32,32v32Z"/>
  <path fill="currentColor" d="M160,256h-32v144c0,8.8,7.2,16,16,16h80v-32h-64v-128Z"/>
</svg>