<?xml version="1.0" encoding="UTF-8"?>
<svg id="line" xmlns="http://www.w3.org/2000/svg" version="1.1" viewBox="0 0 64 64">
  <!-- Generator: Adobe Illustrator 29.7.1, SVG Export Plug-In . SVG Version: 2.1.1 Build 8)  -->
  <path fill="currentColor" d="M13,21h15c.6,0,1-.4,1-1s-.4-1-1-1h-15c-.6,0-1,.4-1,1s.4,1,1,1Z"/>
  <path fill="currentColor" d="M31.1,28c0-.6-.4-1-1-1H13c-.6,0-1,.4-1,1s.4,1,1,1h17.1c.6,0,1-.4,1-1Z"/>
  <path fill="currentColor" d="M23.1,35h-10.1c-.6,0-1,.4-1,1s.4,1,1,1h10.1c.6,0,1-.4,1-1s-.4-1-1-1Z"/>
  <path fill="currentColor" d="M13,45h9.2c.6,0,1-.5,1-1s-.4-1-1-1h-9.2c-.6,0-1,.4-1,1s.4,1,1,1h0Z"/>
  <path fill="currentColor" d="M13,53h12.8c.6,0,1-.4,1-1s-.4-1-1-1h-12.8c-.6,0-1,.4-1,1s.4,1,1,1h0Z"/>
  <path fill="currentColor" d="M44.9,57.4c-.5.4-1.2.6-1.8.6H13c-1.7,0-3-1.3-3-3V9c0-1.7,1.3-3,3-3h19c1.1,0,2,.9,2,2v5c0,2.8,2.2,5,5,5h5c1.1,0,2,.9,2,2v9c0,.6.4,1,1,1s1-.4,1-1h0v-9c0-1.1-.4-2.1-1.2-2.8l-12-12c-.7-.8-1.8-1.2-2.8-1.2H13c-2.8,0-5,2.2-5,5v46c0,2.8,2.2,5,5,5h30c1.1,0,2.2-.4,3.1-1.1.4-.3.5-1,.2-1.4s-1-.5-1.4-.2h0ZM36,9.2l6.8,6.8h-3.8c-1.7,0-3-1.3-3-3v-3.8Z"/>
  <path fill="currentColor" d="M55.1,54.6l-6.4-6.4c1.2-2,1.8-4.2,1.8-6.5,0-7-5.7-12.7-12.7-12.7s-12.7,5.7-12.7,12.7,5.7,12.7,12.7,12.7,4.5-.6,6.5-1.8l6.4,6.4c1.2,1.2,3.2,1.2,4.4,0s1.2-3.2,0-4.4h0ZM37.7,52.5c-5.9,0-10.7-4.8-10.7-10.7s4.8-10.7,10.7-10.7,10.7,4.8,10.7,10.7-4.8,10.7-10.7,10.7ZM53.7,57.7c-.4.4-1.2.4-1.6,0l-6.2-6.2c.6-.5,1.1-1,1.6-1.6l6.2,6.2c.4.4.4,1.2,0,1.6Z"/>
  <path fill="currentColor" d="M39.3,46.9h-.5v-7c0-.6-.4-1-1-1h-1.5c-.6,0-1,.4-1,1s.4,1,1,1h.5v6h-.5c-.6,0-1,.4-1,1s.4,1,1,1h3c.6,0,1-.5,1-1s-.4-1-1-1h0Z"/>
  <circle fill="currentColor" cx="37.8" cy="35.8" r="1.2"/>
</svg>
