<svg version="1.1" id="Layer_1" xmlns="http://www.w3.org/2000/svg" xmlns:xlink="http://www.w3.org/1999/xlink" x="0px" y="0px" viewBox="0 0 512 512" style="enable-background:new 0 0 512 512;" xml:space="preserve">
<g>
	<path style="fill:none;stroke:currentColor;stroke-width:30;stroke-miterlimit:10;" d="M136.5,218.894V15h260.258&#10;&#9;&#9;c26.845,26.845,41.897,41.897,68.742,68.742V497h-329v-98.106"/>
	<polyline style="fill:none;stroke:currentColor;stroke-width:30;stroke-miterlimit:10;" points="382.122,15 382.122,98.894 &#10;&#9;&#9;465.5,98.894 &#9;"/>
	
		<line style="fill:none;stroke:currentColor;stroke-width:30;stroke-miterlimit:10;" x1="420.916" y1="158.894" x2="324.043" y2="158.894"/>
	
		<line style="fill:none;stroke:currentColor;stroke-width:30;stroke-miterlimit:10;" x1="420.916" y1="218.894" x2="136.5" y2="218.894"/>
	
		<line style="fill:none;stroke:currentColor;stroke-width:30;stroke-miterlimit:10;" x1="420.916" y1="278.894" x2="225.721" y2="278.894"/>
	
		<line style="fill:none;stroke:currentColor;stroke-width:30;stroke-miterlimit:10;" x1="420.916" y1="338.894" x2="225.721" y2="338.894"/>
	
		<line style="fill:none;stroke:currentColor;stroke-width:30;stroke-miterlimit:10;" x1="420.916" y1="398.894" x2="136.5" y2="398.894"/>
	<rect x="46.5" y="218.894" style="fill:none;stroke:currentColor;stroke-width:30;stroke-miterlimit:10;" width="180" height="180"/>
	
		<line style="fill:none;stroke:currentColor;stroke-width:30;stroke-miterlimit:10;" x1="96.532" y1="278.894" x2="176.468" y2="278.894"/>
	<line style="fill:none;stroke:currentColor;stroke-width:30;stroke-miterlimit:10;" x1="136.5" y1="352.731" x2="136.5" y2="278.894"/>
</g>
<g>
</g>
<g>
</g>
<g>
</g>
<g>
</g>
<g>
</g>
<g>
</g>
<g>
</g>
<g>
</g>
<g>
</g>
<g>
</g>
<g>
</g>
<g>
</g>
<g>
</g>
<g>
</g>
<g>
</g>
</svg>