<?xml version="1.0" encoding="UTF-8"?>
<svg id="Layer_1" xmlns="http://www.w3.org/2000/svg" version="1.1" xmlns:xlink="http://www.w3.org/1999/xlink" viewBox="0 0 64 64">
  <!-- Generator: Adobe Illustrator 29.7.1, SVG Export Plug-In . SVG Version: 2.1.1 Build 8)  -->
  <defs>
    <style>
      .st0 {
        fill: none;
      }

      .st1 {
        clip-path: url(#clippath);
      }
    </style>
    <clipPath id="clippath">
      <rect class="st0" x="77.8" y="8.4" width="60.4" height="63.7"/>
    </clipPath>
  </defs>
  <path fill="currentColor" d="M42.9,62.5c-1.1,0-2.1-.9-2.1-2.1v-2.5c-.8-.4-1.5-.8-2.2-1.3l-2.2,1.3c-.3.2-.7.3-1,.3s-.4,0-.5,0c-.5-.1-1-.5-1.3-1l-3-5.2H3.4c-.8,0-1.5-.7-1.5-1.5v-6.3c0-9.8,7.1-18.4,16.6-20.4-3.1-2.3-4.9-5.9-4.9-9.8,0-6.8,5.5-12.3,12.3-12.3s12.3,5.5,12.3,12.3-1.8,7.5-4.9,9.8c4.2.9,8,3.1,11,6.2h4.9c1.1,0,2.1.9,2.1,2.1v2.5c.8.4,1.5.8,2.2,1.3l2.2-1.3c.3-.2.7-.3,1-.3s.4,0,.5,0c.5.1,1,.5,1.3,1l3.2,5.5c.3.5.4,1,.2,1.6-.1.5-.5,1-1,1.3l-2.2,1.3c0,.4,0,.9,0,1.3s0,.9,0,1.3l2.2,1.3c.5.3.8.7,1,1.3.1.5,0,1.1-.2,1.6l-3.2,5.5c-.3.5-.7.8-1.3,1-.2,0-.4,0-.5,0-.4,0-.7,0-1-.3l-2.2-1.3c-.7.5-1.5.9-2.2,1.3v2.5c0,1.1-.9,2.1-2.1,2.1h-6.4ZM48.4,59.5v-2.3c0-.9.5-1.6,1.3-1.9.9-.4,1.8-.9,2.6-1.5.4-.3.8-.5,1.3-.5s.7,0,1,.3l2,1.1,2.3-3.9-1.9-1.1c-.7-.4-1.1-1.3-1-2.1,0-.5.1-1,.1-1.5s0-1-.1-1.5c-.1-.9.3-1.7,1-2.1l1.9-1.1-2.3-3.9-1.9,1.1c-.3.2-.7.3-1,.3s-.9-.2-1.3-.5c-.8-.6-1.6-1.1-2.6-1.5-.8-.3-1.3-1.1-1.3-1.9v-2.3h-4.5v2.3c0,.9-.5,1.6-1.3,1.9-.9.4-1.8.9-2.6,1.5-.4.3-.8.5-1.3.5s-.7,0-1-.3l-2-1.1-2.3,3.9,1.9,1.1c.7.4,1.1,1.3,1,2.1,0,.5-.1,1-.1,1.5s0,1,.1,1.5c.1.8-.3,1.7-1,2.1l-1.9,1.1,2.3,3.9,1.9-1.1c.3-.2.7-.3,1-.3s.9.2,1.3.5c.8.6,1.6,1.1,2.6,1.5.8.3,1.3,1.1,1.3,1.9v2.3h4.5ZM30.9,48.9c0,0,.2-.1.3-.2l2.2-1.3c0-.4,0-.9,0-1.3s0-.9,0-1.3l-2.2-1.3c-1-.6-1.3-1.8-.8-2.8l3.2-5.5c.3-.5.7-.8,1.3-1,.2,0,.4,0,.5,0,.4,0,.7,0,1,.3l2.2,1.3c.7-.5,1.4-.9,2.2-1.3v-2.5c0-.4,0-.7.3-1-3.3-3-7.6-4.7-12.1-4.7h-6.3c-9.9,0-17.9,8-17.9,17.9v4.8h26ZM25.9,4.5c-5.1,0-9.3,4.2-9.3,9.3s4.2,9.3,9.3,9.3,9.3-4.2,9.3-9.3-4.2-9.3-9.3-9.3Z"/>
  <path fill="currentColor" d="M61.6,42.2c.1-.4,0-.8-.2-1.2l-3.2-5.5c-.2-.4-.6-.6-1-.7-.4-.1-.8,0-1.2.2l-2.5,1.4c-.8-.6-1.7-1.2-2.7-1.6v-2.9c0-.9-.7-1.6-1.6-1.6h-5.2c-3.2-3.5-7.4-5.7-12-6.4,3.4-2.1,5.6-5.8,5.6-10.1,0-6.5-5.3-11.8-11.8-11.8s-11.8,5.3-11.8,11.8,2.3,8,5.7,10.1c-9.8,1.5-17.4,9.9-17.4,20.2v6.3c0,.6.4,1,1,1h27.5l3.1,5.4c.2.4.6.6,1,.7.4.1.8,0,1.2-.2l2.5-1.4c.8.6,1.7,1.2,2.7,1.6v2.9c0,.9.7,1.6,1.6,1.6h6.4c.9,0,1.6-.7,1.6-1.6v-2.9c1-.4,1.9-.9,2.7-1.6l2.5,1.4c.4.2.8.3,1.2.2.4-.1.7-.4,1-.7l3.2-5.5c.2-.4.3-.8.2-1.2-.1-.4-.4-.7-.7-1l-2.5-1.4c0-.5.1-1.1.1-1.6s0-1-.1-1.6l2.5-1.4c.4-.2.6-.6.7-1ZM16.1,13.8c0-5.4,4.4-9.8,9.8-9.8s9.8,4.4,9.8,9.8-4.4,9.8-9.8,9.8-9.8-4.4-9.8-9.8ZM4.4,44.1c0-10.2,8.3-18.4,18.4-18.4h6.3c4.8,0,9.3,1.9,12.8,5.2-.3.3-.5.7-.5,1.1v2.9c-1,.4-1.9.9-2.7,1.6l-2.5-1.4c-.4-.2-.8-.3-1.2-.2-.4.1-.7.4-1,.7l-3.2,5.5c-.4.8-.2,1.7.6,2.2l2.5,1.4c0,.5-.1,1.1-.1,1.6s0,1,.1,1.6l-2.5,1.4c-.1,0-.2.2-.3.3H4.4v-5.3ZM57.1,43c-.6.3-.9,1-.8,1.6,0,.5.1,1,.1,1.5s0,1-.1,1.5c-.1.6.2,1.3.8,1.6l2.4,1.4-2.8,4.8-2.4-1.4c-.6-.3-1.2-.3-1.8.1-.8.6-1.7,1.2-2.7,1.5-.6.2-1,.8-1,1.5v2.8h-5.5v-2.8c0-.6-.4-1.2-1-1.5-1-.4-1.9-.9-2.7-1.6-.5-.4-1.2-.5-1.8-.1l-2.4,1.4-2.8-4.8,2.4-1.4c.6-.3.9-1,.8-1.6,0-.5-.1-1-.1-1.5s0-1,.1-1.5c0-.6-.2-1.3-.8-1.6l-2.4-1.4,2.8-4.8,2.4,1.4c.6.3,1.2.3,1.8-.1.8-.6,1.7-1.2,2.7-1.6.6-.2,1-.8,1-1.5v-2.8h.3s0,0,0,0h5.2v2.8c0,.6.4,1.2,1,1.5,1,.4,1.9.9,2.7,1.6.5.4,1.2.5,1.8.1l2.4-1.4,2.8,4.8-2.4,1.4Z"/>
  <path fill="currentColor" d="M46.1,39.4c-3.7,0-6.8,3-6.8,6.8s3,6.8,6.8,6.8,6.8-3,6.8-6.8-3-6.8-6.8-6.8ZM46.1,51c-2.6,0-4.8-2.1-4.8-4.8s2.1-4.8,4.8-4.8,4.8,2.1,4.8,4.8-2.1,4.8-4.8,4.8Z"/>
  <g class="st1">
    <path fill="currentColor" d="M120.6,16.4h10.1c1.4,0,2.5,1.2,2.5,2.7v42.5c0,1.5-1.1,2.7-2.5,2.7h-45.3c-1.4,0-2.5-1.2-2.5-2.7V19c0-1.5,1.1-2.7,2.5-2.7h10.1v-5.3h5v5.3h15.1v-5.3h5v5.3ZM115.5,21.7h-15.1v5.3h-5v-5.3h-7.6v10.6h40.3v-10.6h-7.6v5.3h-5v-5.3ZM128.1,37.6h-40.3v21.2h40.3v-21.2Z"/>
  </g>
</svg>