<svg xmlns="http://www.w3.org/2000/svg" xmlns:xlink="http://www.w3.org/1999/xlink" fill="none" version="1.1" width="24" height="24" viewBox="0 0 24 24"><defs><clipPath id="master_svg0_2_762"><rect x="0" y="0" width="24" height="24" rx="0"/></clipPath></defs><g clip-path="url(#master_svg0_2_762)"><g><path d="M11.99999988079071,11C14.76139988079071,11,16.99999988079071,13.2386,16.99999988079071,16L16.99999988079071,22L6.9999998807907104,22L6.9999998807907104,16C6.9999998807907104,13.2386,9.23857988079071,11,11.99999988079071,11ZM5.287999880790711,14.006C5.12885988079071,14.5428,5.034849880790711,15.0968,5.0079998807907105,15.656L4.9999998807907104,16L4.9999998807907104,22L1.9999999999997105,22L1.9999999999997105,17.5C1.9995926617907105,15.7142,3.3437698807907106,14.2144,5.11899988079071,14.02L5.287999880790711,14.006L5.287999880790711,14.006ZM18.71199988079071,14.006C20.55949988079071,14.1189,21.99999988079071,15.6497,21.99999988079071,17.5L21.99999988079071,22L18.99999988079071,22L18.99999988079071,16C18.99999988079071,15.307,18.89999988079071,14.638,18.71199988079071,14.006ZM5.4999998807907104,8C6.88070988079071,8,7.9999998807907104,9.11929,7.9999998807907104,10.5C7.9999998807907104,11.88071,6.88070988079071,13,5.4999998807907104,13C4.11928988079071,13,2.9999998807907104,11.88071,2.9999998807907104,10.5C2.9999998807907104,9.11929,4.11928988079071,8,5.4999998807907104,8ZM18.49999988079071,8C19.88069988079071,8,20.99999988079071,9.11929,20.99999988079071,10.5C20.99999988079071,11.88071,19.88069988079071,13,18.49999988079071,13C17.119299880790713,13,15.99999988079071,11.88071,15.99999988079071,10.5C15.99999988079071,9.11929,17.119299880790713,8,18.49999988079071,8ZM11.99999988079071,2C14.20909988079071,2,15.99999988079071,3.79086,15.99999988079071,6C15.99999988079071,8.20914,14.20909988079071,10,11.99999988079071,10C9.79085988079071,10,7.9999998807907104,8.20914,7.9999998807907104,6C7.9999998807907104,3.79086,9.79085988079071,2,11.99999988079071,2Z" fill="currentColor" fill-opacity="1" style="mix-blend-mode:passthrough"/></g></g></svg>